<?xml version="1.0" encoding="UTF-8"?>
<svg id="_Ñëîé_1" data-name="Ñëîé 1" xmlns="http://www.w3.org/2000/svg" viewBox="0 0 356.38 374.38">
  <defs>
    <style>
      .cls-1 {
        fill: #fff;
      }
    </style>
  </defs>
  <g>
    <g>
      <path class="cls-1" d="M156.91,38.83c-11.34-15.86-12.79-31.67-12.84-32.34l-.41-4.81,4.79-.57c30.95-3.7,54.18,1.87,69.05,16.57,19.7,19.47,16.94,47.45,16.81,48.63l-.48,4.46h-4.49c-41,0-62.02-17.37-72.44-31.94ZM154.88,10.5c1.19,5.18,3.95,13.84,10.16,22.52,12.43,17.39,32.42,26.69,59.46,27.67-.14-7.8-2-24.01-14.02-35.9-9.96-9.84-24.84-14.79-44.36-14.79-3.59,0-7.33.17-11.23.5Z"/>
      <path class="cls-1" d="M228.68,69.92l-3.72-.62-.43-3.74c-.1-.84-2.19-20.82,11.1-36.33,9.14-10.66,23.08-16.43,41.43-17.16l5.21-.21v5.21c-.01,1.21-.26,29.75-18.08,44.8-7.01,5.92-15.64,8.9-25.74,8.9-3.12,0-6.38-.28-9.78-.85ZM243.3,35.66c-7.39,8.56-8.75,19.29-8.91,24.92,9.5.85,17.33-1.27,23.32-6.32,10.18-8.58,13.24-23.72,14.16-31.79-12.63,1.4-22.22,5.82-28.58,13.19Z"/>
    </g>
    <g>
      <path class="cls-1" d="M297.08,234.19c.18-3.37.27-6.79.27-10.18h-10c0,3.21-.09,6.46-.25,9.65l9.99.53Z"/>
      <path class="cls-1" d="M188.14,368c52.1,0,97.17-48.82,107.16-116.08l-9.89-1.47c-9.26,62.32-50.17,107.55-97.27,107.55-10.71,0-21.25-2.3-31.32-6.84l-4.11,9.12c11.37,5.12,23.29,7.72,35.43,7.72Z"/>
      <path class="cls-1" d="M105.82,149.31c18.53-37.12,49.31-59.28,82.32-59.28h16.12s0-10,0-10h-16.12c-36.89,0-71.01,24.23-91.27,64.82l8.95,4.47Z"/>
      <path class="cls-1" d="M247.18,368c29.45,0,57.04-15.17,77.68-42.71,20.33-27.11,31.52-63.08,31.52-101.28s-11.19-74.17-31.52-101.28c-20.65-27.54-48.24-42.71-77.68-42.71h-15.5s0,10,0,10h15.5c54.7,0,99.2,60.11,99.2,133.99,0,73.88-44.5,133.99-99.21,133.99-9.23,0-18.38-1.72-27.17-5.11l-3.6,9.33c9.95,3.83,20.3,5.78,30.77,5.78Z"/>
    </g>
    <rect class="cls-1" x="225.02" y="67" width="10" height="43.56"/>
  </g>
  <g>
    <path class="cls-1" d="M30.77,338.26C11.22,315.84,0,285.83,0,255.92c0-62.19,47.49-112.79,105.86-112.79,58.37,0,105.86,50.6,105.86,112.79,0,29.91-11.22,59.92-30.77,82.34-20.32,23.29-46.98,36.12-75.08,36.12-28.1,0-54.77-12.83-75.09-36.12ZM10,255.92c0,58.79,43.9,108.47,95.86,108.47s95.86-49.67,95.86-108.47c0-56.68-43-102.79-95.86-102.79-52.86,0-95.86,46.11-95.86,102.79Z"/>
    <path class="cls-1" d="M104.34,332.07c-.47-.15-11.54-3.77-22.94-14.24-10.46-9.62-23.26-27.1-24.81-55.81-1.57-28.88,11.4-48.14,22.55-59.21,12-11.91,24.32-17.02,24.84-17.23l1.89-.77,1.89.77c.52.21,12.84,5.32,24.84,17.23,11.15,11.07,24.11,30.33,22.55,59.21-1.56,28.71-14.35,46.19-24.81,55.81-11.4,10.48-22.47,14.09-22.94,14.24l-1.52.49-1.52-.49ZM85.92,210.16c-13.93,13.97-20.44,31.23-19.35,51.31,2.34,43.1,32.07,57.6,39.29,60.5,7.25-2.91,36.96-17.42,39.29-60.5,1.09-20.08-5.42-37.35-19.35-51.31-7.99-8.02-16.3-12.64-19.94-14.45-3.64,1.81-11.95,6.43-19.94,14.45Z"/>
    <path class="cls-1" d="M132.55,236.75c1.97-12.61-9.3-22.96-9.78-23.39l-6.7,7.42,3.35-3.71-3.36,3.7c2.16,1.98,7.56,8.43,6.62,14.44l9.88,1.54Z"/>
    <path class="cls-1" d="M86.21,258.61l9.03-4.29c-4.98-10.48-3.53-16.81-3.46-17.08l-9.65-2.61c-.28.99-2.52,10.08,4.08,23.98Z"/>
    <path class="cls-1" d="M117.76,279.43c10.57-5.92,8.46-23,8.18-24.93l-9.9,1.4c.53,3.79.46,12.77-3.17,14.8l4.89,8.73Z"/>
    <path class="cls-1" d="M93.44,297.45l7.19-6.95c-6.59-6.81-5.29-10.96-5.28-11.01-.05.16-.11.24-.11.24l-9.03-4.3c-.48,1-4.31,10.1,7.22,22.02Z"/>
    <path class="cls-1" d="M110.37,311.33c11.56-6.01,15.18-14.58,15.55-15.53l-9.31-3.65,4.66,1.82-4.63-1.88c-.1.25-2.62,6.07-10.88,10.36l4.61,8.87Z"/>
  </g>
</svg>