<?xml version="1.0" encoding="UTF-8"?>
<svg id="_Ñëîé_1" data-name="Ñëîé 1" xmlns="http://www.w3.org/2000/svg" viewBox="0 0 300.59 390.22">
  <defs>
    <style>
      .cls-1 {
        fill: #fff;
      }
    </style>
  </defs>
  <path class="cls-1" d="M198.43,390.22c-24.37,0-40.54-8.56-43.04-9.98-5.73-2.43-8.62-1-9.18-.66l-.41.44-.28.04c-.93.55-23.19,13.5-56.51,9.33-10.29-1.29-22.88-10.95-35.44-27.21C20.09,318.83-8.7,237.28,2.44,152.82c4.34-32.94,24.95-55.26,58.01-62.85,38.7-8.88,82.17,4.63,93.73,22.19l-8.35,5.5c-8.53-12.95-47.19-26.19-83.14-17.94-20.3,4.66-45.51,17.88-50.33,54.41-10.76,81.62,16.92,160.23,49.13,201.94,10.6,13.73,21.36,22.48,28.77,23.4,28.08,3.51,47.68-6.64,49.95-7.89,1.97-1.43,8.57-5.15,19.43-.4l.55.28c.19.11,20.41,11.72,50.16,8,7.41-.93,18.16-9.67,28.77-23.4,32.21-41.71,59.9-120.32,49.13-201.94-2.72-20.63-12.11-36-27.89-45.7-24.06-14.78-58.06-13.24-81.08-5.15l-3.31-9.44c25.26-8.87,62.77-10.44,89.63,6.07,18.22,11.19,29.48,29.49,32.57,52.92,11.14,84.47-17.65,166.01-51.13,209.36-12.56,16.26-25.15,25.93-35.44,27.21-4.6.58-9,.83-13.15.83ZM146.28,379.5h0s0,0,0,0Z"/>
  <path class="cls-1" d="M31.02,213.66c-.6-6.94-.93-13.95-1-20.83l10-.1c.06,6.63.39,13.38.96,20.07l-9.96.86Z"/>
  <path class="cls-1" d="M40.46,175.25l-9.98-.59c.36-6.01.93-12.04,1.71-17.91,2.44-18.51,11.5-29.85,28.49-35.69l3.25,9.46c-13.36,4.59-19.89,12.83-21.83,27.54-.74,5.64-1.29,11.43-1.64,17.2Z"/>
  <path class="cls-1" d="M208.08,359.14l-5.15-8.57c3.93-2.37,21.91-19.36,37.99-59.25l9.28,3.74c-16.92,41.96-36.13,60.49-42.11,64.08Z"/>
  <path class="cls-1" d="M152.97,150.7c-14.44,0-27.57-3.8-28.4-4.05l2.83-9.59c.27.08,27.72,8.01,43.75.29l4.34,9.01c-6.78,3.26-14.84,4.34-22.52,4.34Z"/>
  <path class="cls-1" d="M145.37,144.66c-.11-.62-2.69-15.34.07-33.36,3.73-24.3,15.49-42.89,34-53.77l5.06,8.62c-38.44,22.57-29.4,76.19-29.3,76.73l-9.84,1.77Z"/>
  <path class="cls-1" d="M154.11,93.38c-.19,0-.39,0-.58-.02C68.13,87.95,34.96,35.69,26.83,19.8c-1.16-2.26-1.25-4.86-.24-7.12,1.02-2.29,3.05-3.99,5.56-4.66,49.02-13.07,85.21-10.15,107.57,8.67,24.93,20.99,24.79,54.81,23.58,68.38h0c-.42,4.7-4.48,8.32-9.18,8.32ZM36.74,17.15c9.01,16.51,40.26,61.06,116.66,66.18.81-10.31,1.19-41.05-20.13-59-19.42-16.35-51.89-18.77-96.53-7.19Z"/>
</svg>