<?xml version="1.0" encoding="UTF-8"?>
<svg id="Layer_1" data-name="Layer 1" xmlns="http://www.w3.org/2000/svg" viewBox="0 0 370.42 369.54">
  <defs>
    <style>
      .cls-1 {
        fill: #fff;
      }
    </style>
  </defs>
  <path class="cls-1" d="M312.98,263.44c32.18-3.04,57.44-30.18,57.44-63.14v-75.05c0-34.98-28.46-63.45-63.45-63.45-15.85,0-30.79,5.89-42.27,16.18C263.26,34.75,227.73,0,184.16,0s-78.11,33.79-80.46,76.19c-11.21-9.26-25.27-14.39-40.25-14.39C28.46,61.8,0,90.26,0,125.25v75.05c0,32.96,25.27,60.11,57.45,63.14v94.1H9.32c-3.31,0-6,2.69-6,6s2.69,6,6,6h349.68c3.31,0,6-2.69,6-6s-2.69-6-6-6h-14.67c2.07-4.82,4.86-9.42,8.49-13.68,2.15-2.53,1.84-6.31-.68-8.46-2.53-2.15-6.31-1.84-8.46.68-5.58,6.56-9.59,13.78-12.17,21.46h-18.53v-94.1ZM306.98,73.8c28.37,0,51.44,23.08,51.44,51.45v75.05c0,26.33-19.9,48.08-45.44,51.06v-58.44l28.42-28.42c2.34-2.34,2.34-6.14,0-8.48-2.34-2.34-6.14-2.34-8.48,0l-19.94,19.94v-69.76c0-3.31-2.69-6-6-6s-6,2.69-6,6v42.79l-8.99-8.99c-2.34-2.34-6.14-2.34-8.48,0s-2.34,6.14,0,8.48l17.47,17.47v85.43c-14.79-1.73-28.2-9.79-36.66-22.31-1.86-2.75-5.58-3.47-8.33-1.61-2.75,1.85-3.47,5.58-1.61,8.33,10.7,15.84,27.82,25.82,46.61,27.6v94.16h-44.1c2.02-4.54,5.12-9.23,9.91-12.73,2.68-1.95,3.26-5.71,1.31-8.38-1.95-2.68-5.71-3.26-8.38-1.31-8.62,6.29-13.2,15.01-15.67,22.42h-53.89v-104.3c41.69-3.09,74.68-37.91,74.68-80.38v-77c9.65-13.81,25.24-22.06,42.14-22.06ZM115.47,80.68c0-37.87,30.81-68.68,68.69-68.68s68.68,30.81,68.68,68.68v92.18c0,37.87-30.81,68.68-68.68,68.68s-68.69-30.81-68.69-68.68v-92.18ZM69.45,263.37c18.78-1.78,35.9-11.76,46.61-27.6,1.85-2.75,1.13-6.48-1.61-8.33-2.75-1.85-6.47-1.13-8.33,1.61-8.46,12.53-21.87,20.59-36.66,22.32v-57.44c.3-.21.63-.33.9-.6l28.84-28.84c2.34-2.34,2.34-6.14,0-8.48s-6.14-2.34-8.48,0l-21.25,21.25v-71.08c0-3.31-2.69-6-6-6s-6,2.69-6,6v46.54l-12.74-12.74c-2.34-2.34-6.14-2.34-8.48,0-2.34,2.34-2.34,6.14,0,8.48l19.22,19.23c.59.59,1.27,1.03,2,1.32v82.34c-25.55-2.99-45.45-24.73-45.45-51.06v-75.05c0-28.37,23.08-51.45,51.45-51.45,15.74,0,30.2,7.02,40.03,19.23v79.82c0,42.47,33,77.29,74.69,80.38v104.3h-46.57c1.88-6.76,5.15-13.94,10.84-18.46,2.6-2.06,3.03-5.83.97-8.43-2.07-2.59-5.84-3.03-8.43-.97-8.75,6.94-13.2,17.54-15.49,26.8-1.09-8.58-5.07-23.24-18.99-37.81-2.3-2.4-6.09-2.48-8.48-.19-2.4,2.29-2.48,6.09-.19,8.48,11.55,12.09,14.84,23.91,15.74,30.58h-38.11v-94.16ZM153.57,96.71c10.91,0,19.78-8.87,19.78-19.78s-8.87-19.78-19.78-19.78-19.78,8.87-19.78,19.78,8.87,19.78,19.78,19.78ZM153.57,69.15c4.29,0,7.78,3.49,7.78,7.78s-3.49,7.78-7.78,7.78-7.78-3.49-7.78-7.78,3.49-7.78,7.78-7.78ZM214.74,139.59c10.91,0,19.78-8.87,19.78-19.78s-8.87-19.78-19.78-19.78-19.78,8.87-19.78,19.78,8.87,19.78,19.78,19.78ZM214.74,112.03c4.29,0,7.78,3.49,7.78,7.78s-3.49,7.78-7.78,7.78-7.78-3.49-7.78-7.78,3.49-7.78,7.78-7.78ZM151.83,176.62c0,10.91,8.87,19.78,19.78,19.78s19.78-8.87,19.78-19.78-8.87-19.78-19.78-19.78-19.78,8.87-19.78,19.78ZM179.39,176.62c0,4.29-3.49,7.78-7.78,7.78s-7.78-3.49-7.78-7.78,3.49-7.78,7.78-7.78,7.78,3.49,7.78,7.78Z"/>
</svg>