<?xml version="1.0" encoding="utf-8"?>
<!-- Generator: Adobe Illustrator 16.0.0, SVG Export Plug-In . SVG Version: 6.00 Build 0)  -->
<!DOCTYPE svg PUBLIC "-//W3C//DTD SVG 1.1//EN" "http://www.w3.org/Graphics/SVG/1.1/DTD/svg11.dtd">
<svg version="1.1" id="Layer_1" xmlns="http://www.w3.org/2000/svg" xmlns:xlink="http://www.w3.org/1999/xlink" x="0px" y="0px"
	 width="93.791px" height="93.626px" viewBox="-23.375 -23.375 93.791 93.626"
	 enable-background="new -23.375 -23.375 93.791 93.626" xml:space="preserve">
<g>
	<rect x="-23.487" y="-23.458" fill="#333333" width="23.683" height="5.629"/>
	<rect x="-23.487" y="47.41" fill="#333333" width="5.493" height="5.492"/>
	<rect x="11.89" y="-23.388" fill="#333333" width="5.493" height="5.493"/>
	<polygon fill="#333333" points="11.834,6.047 11.834,28.986 -0.158,28.986 -0.158,6.047 -5.949,6.047 -5.949,28.986 
		-17.694,28.986 -17.694,-23.458 -23.487,-23.458 -23.487,28.986 -23.487,29.465 -23.487,35.553 17.38,35.553 17.38,29.465 
		17.38,28.986 17.38,6.047 	"/>
	<polygon fill="#333333" points="64.965,-23.458 49.807,-23.458 44.018,-23.458 29.293,-23.458 23.499,-23.458 23.499,-17.666 
		23.499,0.204 29.293,0.204 29.293,-17.666 44.018,-17.666 44.018,0.204 49.807,0.204 49.807,-17.666 64.965,-17.666 64.965,0.204 
		70.322,0.204 70.322,-17.666 70.322,-23.458 	"/>
	<path fill="#333333" d="M70.322,6.047h-5.576H29.293h-5.794v5.792v17.924v5.789h5.794h35.453h5.576h0.217V6.047H70.322z
		 M29.293,29.764V11.839h14.725v18.106h5.789V11.839h14.939v17.924H29.293z"/>
	<polygon fill="#333333" points="-0.158,64.586 -0.158,47.41 -5.949,47.41 -5.949,64.586 -23.487,64.586 -23.487,70.375 
		70.322,70.375 70.322,64.586 	"/>
	<rect x="23.568" y="47.26" fill="#333333" width="46.905" height="5.789"/>
</g>
</svg>
