<?xml version="1.0" encoding="utf-8"?>
<!-- Generator: Adobe Illustrator 28.3.0, SVG Export Plug-In . SVG Version: 6.00 Build 0)  -->
<svg version="1.1" id="격리_모드" xmlns="http://www.w3.org/2000/svg" xmlns:xlink="http://www.w3.org/1999/xlink" x="0px"
	 y="0px" viewBox="0 0 24 24" style="enable-background:new 0 0 24 24;" xml:space="preserve">
<style type="text/css">
	.st0{fill:#BABABA;}
</style>
<g>
	<path class="st0" d="M0,17c0.1-0.3,0.1-0.7,0.2-1c0.3-1.2,0.9-2.2,1.7-3.1c1.2-1.2,2.4-2.4,3.6-3.6c0.8-0.8,2-0.4,2.2,0.6
		c0.1,0.4,0,0.7-0.2,1.1c-0.1,0.1-0.2,0.2-0.2,0.3c-1.2,1.2-2.3,2.3-3.5,3.5c-1.3,1.3-1.5,3.1-0.7,4.6c1.2,2.3,4.3,2.8,6.2,0.9
		c1.2-1.2,2.4-2.4,3.6-3.6c0.5-0.5,1.1-0.6,1.6-0.3c0.7,0.4,0.9,1.3,0.4,1.9c0,0-0.1,0.1-0.1,0.1c-1.3,1.3-2.6,2.6-3.9,3.8
		c-1,1-2.3,1.5-3.8,1.7c-0.1,0-0.1,0-0.2,0c-0.3,0-0.6,0-0.9,0c-0.2,0-0.5-0.1-0.7-0.1c-2.7-0.6-4.4-2.2-5.1-4.8
		C0.1,18.7,0.1,18.3,0,18C0,17.7,0,17.3,0,17z"/>
	<path class="st0" d="M17.4,0c3.2,0,5.9,2.2,6.4,5.3c0.4,2.2-0.2,4.2-1.8,5.8c-1.2,1.2-2.4,2.4-3.6,3.6c-0.8,0.8-2,0.5-2.2-0.6
		c-0.1-0.4,0-0.7,0.2-1.1c0.1-0.1,0.2-0.2,0.2-0.3c1.2-1.2,2.3-2.3,3.5-3.5c1.3-1.3,1.6-3.2,0.7-4.7c-1.3-2.3-4.3-2.6-6.2-0.8
		c-1.2,1.2-2.4,2.4-3.6,3.6c-0.5,0.5-1.1,0.6-1.6,0.3C8.8,7.2,8.7,6.3,9.1,5.7c0,0,0.1-0.1,0.1-0.1c1.3-1.3,2.6-2.6,3.9-3.9
		C14.4,0.5,15.9,0,17.4,0z"/>
	<path class="st0" d="M17,8.3c0,0.4-0.2,0.7-0.4,1c-2.4,2.4-4.8,4.8-7.3,7.3c-0.4,0.4-1,0.5-1.5,0.3C7.3,16.6,7,16.1,7,15.6
		c0-0.3,0.2-0.6,0.4-0.9c2.4-2.4,4.8-4.8,7.3-7.3c0.4-0.4,0.9-0.5,1.5-0.3C16.6,7.3,17,7.8,17,8.3z"/>
</g>
</svg>
