<?xml version="1.0" encoding="utf-8"?>
<!-- Generator: Adobe Illustrator 28.3.0, SVG Export Plug-In . SVG Version: 6.00 Build 0)  -->
<svg version="1.1" id="Layer_1" xmlns="http://www.w3.org/2000/svg" xmlns:xlink="http://www.w3.org/1999/xlink" x="0px" y="0px"
	 viewBox="0 0 111 99.7" style="enable-background:new 0 0 111 99.7;" xml:space="preserve">
<style type="text/css">
	.st0{fill:url(#SVGID_1_);}
	.st1{fill:url(#SVGID_00000039845019127187174190000003374774818559592084_);}
	.st2{opacity:0.3;fill:url(#SVGID_00000069371617893405679850000007894641900866218880_);}
	.st3{fill:url(#SVGID_00000149341768559747642800000015190576271894693038_);}
	.st4{fill:url(#SVGID_00000047048028112538260320000012757745680778970018_);}
	.st5{fill:url(#SVGID_00000018195068073191845800000009880263640784572069_);}
	.st6{fill:url(#SVGID_00000169532347733896705070000006022397203301449110_);}
</style>
<linearGradient id="SVGID_1_" gradientUnits="userSpaceOnUse" x1="104.6802" y1="44.3576" x2="9.0325" y2="32.3312">
	<stop  offset="0" style="stop-color:#BFFFD9"/>
	<stop  offset="1" style="stop-color:#90E2AC"/>
</linearGradient>
<path class="st0" d="M111,37.4v1.5c0,4.2-3.4,7.6-7.6,7.6H7.6c-4.2,0-7.6-3.4-7.6-7.6v-1.5c0-4.2,3.4-7.6,7.6-7.6h95.8
	C107.6,29.8,111,33.2,111,37.4z"/>
<linearGradient id="SVGID_00000107579426364885510740000009501090050808324792_" gradientUnits="userSpaceOnUse" x1="92.6661" y1="76.433" x2="14.3072" y2="66.5804">
	<stop  offset="0" style="stop-color:#F8E54B"/>
	<stop  offset="0.9947" style="stop-color:#EBAF34"/>
</linearGradient>
<path style="fill:url(#SVGID_00000107579426364885510740000009501090050808324792_);" d="M9.9,46.5l1,4.5l7.8,37.4
	c1.4,6.5,7.1,11.2,13.8,11.2h46c6.7,0,12.5-4.7,13.8-11.2l7.8-37.4l1-4.5H9.9z M37.3,89.4c-2.4,0-4.5-1.7-5.1-4.1l-4.9-22.1
	c-0.7-3.2,1.7-6.3,5.1-6.3h2.2c2.6,0,4.8,2,5.2,4.6l2.7,22.1C42.9,86.7,40.5,89.4,37.3,89.4z M60.8,84.5c-0.1,2.8-2.4,4.9-5.2,4.9
	h-0.2c-2.8,0-5-2.2-5.2-4.9l-1.1-22.1c-0.1-3,2.2-5.5,5.2-5.5h2.4c3,0,5.3,2.5,5.2,5.5L60.8,84.5z M83.6,63.2l-4.9,22.1
	c-0.5,2.4-2.6,4.1-5.1,4.1c-3.1,0-5.5-2.7-5.2-5.8l2.7-22.1c0.3-2.6,2.5-4.6,5.2-4.6h2.2C81.9,56.9,84.3,59.9,83.6,63.2z"/>
<linearGradient id="SVGID_00000026875187161931443830000013524098564403957643_" gradientUnits="userSpaceOnUse" x1="95.5173" y1="53.7568" x2="17.1585" y2="43.9043">
	<stop  offset="0" style="stop-color:#E69434"/>
	<stop  offset="0.3907" style="stop-color:#E59135;stop-opacity:0.6093"/>
	<stop  offset="0.6718" style="stop-color:#E38839;stop-opacity:0.3282"/>
	<stop  offset="0.9178" style="stop-color:#DF783F;stop-opacity:8.220768e-02"/>
	<stop  offset="1" style="stop-color:#DD7142;stop-opacity:0"/>
</linearGradient>
<polygon style="opacity:0.3;fill:url(#SVGID_00000026875187161931443830000013524098564403957643_);" points="101.1,46.5 
	100.1,51.1 10.9,51.1 9.9,46.5 "/>
<linearGradient id="SVGID_00000087388109207293596680000006742488368991446400_" gradientUnits="userSpaceOnUse" x1="30.582" y1="35.7256" x2="41.4416" y2="35.7256">
	<stop  offset="0" style="stop-color:#BFFFD9"/>
	<stop  offset="1" style="stop-color:#90E2AC"/>
</linearGradient>
<path style="fill:url(#SVGID_00000087388109207293596680000006742488368991446400_);" d="M37.7,41.5c-2.5,0.5-5-1.1-5.5-3.6
	l-1.7-8.1h9.5l1.3,6.2C41.9,38.5,40.3,41,37.7,41.5z"/>
<linearGradient id="SVGID_00000139279107777132547240000015551247794913721255_" gradientUnits="userSpaceOnUse" x1="35.0393" y1="10.4135" x2="44.3141" y2="10.4135" gradientTransform="matrix(0.8896 -0.4568 0.4568 0.8896 -12.8078 29.9292)">
	<stop  offset="0" style="stop-color:#E69434"/>
	<stop  offset="0.9894" style="stop-color:#DD7142"/>
</linearGradient>
<path style="fill:url(#SVGID_00000139279107777132547240000015551247794913721255_);" d="M38,41.4l-0.5,0.3
	c-2.1,1.1-4.7,0.3-5.8-1.9l-17-33.2c-1.1-2.1-0.3-4.7,1.9-5.8L17,0.5c2.1-1.1,4.7-0.3,5.8,1.9l17,33.2C41,37.7,40.1,40.3,38,41.4z"
	/>
<linearGradient id="SVGID_00000083077567724572992920000018136019964764823718_" gradientUnits="userSpaceOnUse" x1="30.5721" y1="35.7256" x2="41.4318" y2="35.7256" gradientTransform="matrix(-1 0 0 1 111.1413 0)">
	<stop  offset="0" style="stop-color:#BFFFD9"/>
	<stop  offset="1" style="stop-color:#90E2AC"/>
</linearGradient>
<path style="fill:url(#SVGID_00000083077567724572992920000018136019964764823718_);" d="M73.4,41.5c2.5,0.5,5-1.1,5.5-3.6l1.7-8.1
	h-9.5L69.8,36C69.3,38.5,70.9,41,73.4,41.5z"/>
<linearGradient id="SVGID_00000111909413455318486090000000616588757585657733_" gradientUnits="userSpaceOnUse" x1="35.0306" y1="10.409" x2="44.3054" y2="10.409" gradientTransform="matrix(-0.8896 -0.4568 -0.4568 0.8896 123.9492 29.9292)">
	<stop  offset="0" style="stop-color:#E69434"/>
	<stop  offset="0.9894" style="stop-color:#DD7142"/>
</linearGradient>
<path style="fill:url(#SVGID_00000111909413455318486090000000616588757585657733_);" d="M73.1,41.4l0.5,0.3
	c2.1,1.1,4.7,0.3,5.8-1.9l17-33.2c1.1-2.1,0.3-4.7-1.9-5.8l-0.5-0.3c-2.1-1.1-4.7-0.3-5.8,1.9l-17,33.2C70.2,37.7,71,40.3,73.1,41.4
	z"/>
</svg>
