<?xml version="1.0" encoding="utf-8"?>
<!-- Generator: Adobe Illustrator 28.3.0, SVG Export Plug-In . SVG Version: 6.00 Build 0)  -->
<svg version="1.1" id="Layer_1" xmlns="http://www.w3.org/2000/svg" xmlns:xlink="http://www.w3.org/1999/xlink" x="0px" y="0px"
	 viewBox="0 0 98.8 98.8" style="enable-background:new 0 0 98.8 98.8;" xml:space="preserve">
<style type="text/css">
	.st0{fill:url(#SVGID_1_);}
	.st1{fill:url(#SVGID_00000149360270393363918500000015823844044033021588_);}
	.st2{fill:url(#SVGID_00000066515387721171301040000011551950339585779847_);}
	.st3{fill:url(#SVGID_00000113328586221746549860000001890994449197708469_);}
</style>
<linearGradient id="SVGID_1_" gradientUnits="userSpaceOnUse" x1="44.9229" y1="64.9743" x2="58.6442" y2="78.6956" gradientTransform="matrix(0.7071 -0.7071 0.7071 0.7071 -22.1687 50.1347)">
	<stop  offset="0" style="stop-color:#F8E54B"/>
	<stop  offset="0.9947" style="stop-color:#EBAF34"/>
</linearGradient>
<polygon class="st0" points="74.5,65.6 65.5,74.5 54.1,63.1 63,54.2 "/>
<linearGradient id="SVGID_00000083078042064318575660000001157631214409953671_" gradientUnits="userSpaceOnUse" x1="28.8907" y1="9.6548" x2="78.2142" y2="58.9783" gradientTransform="matrix(0.7071 -0.7071 0.7071 0.7071 -22.1687 50.1347)">
	<stop  offset="0" style="stop-color:#BFFFD9"/>
	<stop  offset="1" style="stop-color:#90E2AC"/>
</linearGradient>
<circle style="fill:url(#SVGID_00000083078042064318575660000001157631214409953671_);" cx="36.5" cy="36.5" r="36.5"/>
<linearGradient id="SVGID_00000060028632392457220460000018025211951496423066_" gradientUnits="userSpaceOnUse" x1="44.1059" y1="60.6199" x2="59.6395" y2="76.1535" gradientTransform="matrix(0.7071 -0.7071 -1.5029 -1.5029 147.1016 219.4051)">
	<stop  offset="0" style="stop-color:#FF8543"/>
	<stop  offset="1" style="stop-color:#FF375A"/>
</linearGradient>
<path style="fill:url(#SVGID_00000060028632392457220460000018025211951496423066_);" d="M71.6,66.3l-5.3,5.3
	c-2.5,2.5-2.5,6.6,0,9.1L82.5,97c2.5,2.5,6.6,2.5,9.1,0l5.3-5.3c2.5-2.5,2.5-6.6,0-9.1L80.7,66.3C78.2,63.8,74.1,63.8,71.6,66.3z"/>
<linearGradient id="SVGID_00000132048773008689658210000014830309507591017142_" gradientUnits="userSpaceOnUse" x1="35.5199" y1="16.3193" x2="70.0993" y2="50.8987" gradientTransform="matrix(0.7071 -0.7071 0.7071 0.7071 -22.1687 50.1347)">
	<stop  offset="0" style="stop-color:#FFFFFF"/>
	<stop  offset="7.034051e-02" style="stop-color:#FFFFFF;stop-opacity:0.9648"/>
	<stop  offset="1" style="stop-color:#FFFFFF;stop-opacity:0.5"/>
</linearGradient>
<path style="fill:url(#SVGID_00000132048773008689658210000014830309507591017142_);" d="M54.6,18.4c-10-10-26.2-10-36.2,0
	s-10,26.2,0,36.2s26.2,10,36.2,0S64.6,28.4,54.6,18.4z"/>
</svg>
