<?xml version="1.0" encoding="utf-8"?>
<!-- Generator: Adobe Illustrator 28.3.0, SVG Export Plug-In . SVG Version: 6.00 Build 0)  -->
<svg version="1.1" id="Layer_1" xmlns="http://www.w3.org/2000/svg" xmlns:xlink="http://www.w3.org/1999/xlink" x="0px" y="0px"
	 viewBox="0 0 106.4 74.7" style="enable-background:new 0 0 106.4 74.7;" xml:space="preserve">
<style type="text/css">
	.st0{fill:url(#SVGID_1_);}
	.st1{fill:url(#SVGID_00000150786251371107555700000010901613745204316291_);}
	.st2{fill:url(#SVGID_00000062164619978021807030000014603375404782411698_);}
	.st3{fill:url(#SVGID_00000068647803691768446110000000008956019477174947_);}
	.st4{opacity:0.3;fill:url(#SVGID_00000081626300277986823840000000594495331941654663_);}
	.st5{fill:url(#SVGID_00000060019451266503705100000015923992901961928124_);}
	.st6{fill:url(#SVGID_00000025436602078443656990000007974121540444712101_);}
	.st7{fill:url(#SVGID_00000079467020439929779740000017868614669673481399_);}
</style>
<linearGradient id="SVGID_1_" gradientUnits="userSpaceOnUse" x1="21.3665" y1="48.8424" x2="57.443" y2="84.919">
	<stop  offset="0" style="stop-color:#F8E54B"/>
	<stop  offset="0.9947" style="stop-color:#EBAF34"/>
</linearGradient>
<path class="st0" d="M71.2,65v3.7c0,3.1-2.3,5.6-5.3,5.9c-0.1,0-0.3,0-0.4,0c-0.1,0-0.1,0-0.2,0H13.6c-3.3,0-5.9-2.7-5.9-5.9V65
	c0-3.3,2.7-5.9,5.9-5.9h51.7C68.5,59.1,71.2,61.8,71.2,65z"/>
<linearGradient id="SVGID_00000152948588715805173330000009039591380888800696_" gradientUnits="userSpaceOnUse" x1="13.7456" y1="33.2937" x2="49.8267" y2="69.3748">
	<stop  offset="0" style="stop-color:#F8E54B"/>
	<stop  offset="0.9947" style="stop-color:#EBAF34"/>
</linearGradient>
<path style="fill:url(#SVGID_00000152948588715805173330000009039591380888800696_);" d="M63.6,49.5v3.7c0,3.3-2.7,5.9-5.9,5.9H5.9
	c-3.3,0-5.9-2.7-5.9-5.9v-3.7c0-3.3,2.7-5.9,5.9-5.9h51.7C60.9,43.6,63.6,46.2,63.6,49.5z"/>
<linearGradient id="SVGID_00000000903940862591963630000016042634736277537173_" gradientUnits="userSpaceOnUse" x1="26.2567" y1="17.7503" x2="62.3324" y2="53.8261">
	<stop  offset="0" style="stop-color:#F8E54B"/>
	<stop  offset="0.9947" style="stop-color:#EBAF34"/>
</linearGradient>
<path style="fill:url(#SVGID_00000000903940862591963630000016042634736277537173_);" d="M76.1,34v3.7c0,3.3-2.7,5.9-5.9,5.9H18.5
	c-3.3,0-5.9-2.7-5.9-5.9V34c0-3.3,2.7-5.9,5.9-5.9h51.7C73.4,28,76.1,30.7,76.1,34z"/>
<linearGradient id="SVGID_00000069364653898257455020000015748060144684759433_" gradientUnits="userSpaceOnUse" x1="18.7122" y1="2.2106" x2="54.7899" y2="38.2883">
	<stop  offset="0" style="stop-color:#F8E54B"/>
	<stop  offset="0.9947" style="stop-color:#EBAF34"/>
</linearGradient>
<path style="fill:url(#SVGID_00000069364653898257455020000015748060144684759433_);" d="M68.5,18.4v3.7c0,3.3-2.7,5.9-5.9,5.9H10.9
	C7.6,28,5,25.4,5,22.1v-3.7c0-3.3,2.7-5.9,5.9-5.9h51.7C65.9,12.5,68.5,15.1,68.5,18.4z"/>
<linearGradient id="SVGID_00000049944433264827830430000007044881659464326582_" gradientUnits="userSpaceOnUse" x1="31.2646" y1="17.806" x2="77.9103" y2="64.4517">
	<stop  offset="0" style="stop-color:#E69434"/>
	<stop  offset="0.3907" style="stop-color:#E59135;stop-opacity:0.6093"/>
	<stop  offset="0.6718" style="stop-color:#E38839;stop-opacity:0.3282"/>
	<stop  offset="0.9178" style="stop-color:#DF783F;stop-opacity:8.220768e-02"/>
	<stop  offset="1" style="stop-color:#DD7142;stop-opacity:0"/>
</linearGradient>
<path style="opacity:0.3;fill:url(#SVGID_00000049944433264827830430000007044881659464326582_);" d="M76.1,34v3.7
	c0,3.3-2.7,5.9-5.9,5.9H57.6c3.3,0,5.9,2.7,5.9,5.9v3.7c0,3.3-2.7,5.9-5.9,5.9h7.6c3.3,0,5.9,2.7,5.9,5.9v3.7c0,3.1-2.3,5.6-5.3,5.9
	c-0.1,0-0.3,0-0.4,0c-0.3,0-0.6,0-1,0c-12.5,0-23.5-6.1-30.3-15.5c-3.3-4.5-5.5-9.8-6.5-15.5c-0.3-2-0.5-4.1-0.5-6.2
	c0-3.2,0.4-6.3,1.2-9.3c1.5-5.9,4.4-11.2,8.3-15.5h26c3.3,0,5.9,2.7,5.9,5.9v3.7c0,3.3-2.7,5.9-5.9,5.9h7.5
	C73.4,28,76.1,30.7,76.1,34z"/>
<linearGradient id="SVGID_00000067213731649208384860000011380095358447607225_" gradientUnits="userSpaceOnUse" x1="42.7192" y1="10.9325" x2="95.5061" y2="63.7194">
	<stop  offset="0" style="stop-color:#F8E54B"/>
	<stop  offset="0.9947" style="stop-color:#EBAF34"/>
</linearGradient>
<circle style="fill:url(#SVGID_00000067213731649208384860000011380095358447607225_);" cx="69.1" cy="37.3" r="37.3"/>
<linearGradient id="SVGID_00000168106450678460198500000014337529117105457299_" gradientUnits="userSpaceOnUse" x1="50.9481" y1="55.4906" x2="87.2773" y2="19.1614">
	<stop  offset="0" style="stop-color:#F8E54B"/>
	<stop  offset="0.9947" style="stop-color:#EBAF34"/>
</linearGradient>
<circle style="fill:url(#SVGID_00000168106450678460198500000014337529117105457299_);" cx="69.1" cy="37.3" r="25.7"/>
<linearGradient id="SVGID_00000026847322798691221310000016818319311588918146_" gradientUnits="userSpaceOnUse" x1="60.5116" y1="38.3909" x2="81.862" y2="38.3909">
	<stop  offset="0" style="stop-color:#FFFFFF"/>
	<stop  offset="7.034051e-02" style="stop-color:#FFFFFF;stop-opacity:0.9648"/>
	<stop  offset="1" style="stop-color:#FFFFFF;stop-opacity:0.5"/>
</linearGradient>
<path style="fill:url(#SVGID_00000026847322798691221310000016818319311588918146_);" d="M71,43.3h-5.5v9.4c0,1.4-1.1,2.5-2.5,2.5h0
	c-1.4,0-2.5-1.1-2.5-2.5V25.1c0-1.9,1.5-3.4,3.4-3.4H71c1.5,0,2.9,0.3,4.3,0.8c1.3,0.6,2.4,1.3,3.5,2.3c1,1,1.7,2.1,2.3,3.5
	c0.5,1.4,0.8,2.8,0.8,4.3c0,1.5-0.3,2.9-0.8,4.2c-0.6,1.4-1.3,2.6-2.4,3.5C76.5,42.3,73.9,43.3,71,43.3z M71,38.3
	c1.5,0,2.9-0.6,4.1-1.8c1.1-1.1,1.7-2.4,1.7-4c0-1.5-0.6-2.9-1.7-4.1c-1.2-1.1-2.6-1.7-4.1-1.7h-5.5v11.6H71z"/>
</svg>
