<?xml version="1.0" encoding="utf-8"?>
<!-- Generator: Adobe Illustrator 28.3.0, SVG Export Plug-In . SVG Version: 6.00 Build 0)  -->
<svg version="1.1" id="Layer_1" xmlns="http://www.w3.org/2000/svg" xmlns:xlink="http://www.w3.org/1999/xlink" x="0px" y="0px"
	 viewBox="0 0 95.3 95.3" style="enable-background:new 0 0 95.3 95.3;" xml:space="preserve">
<style type="text/css">
	.st0{fill:url(#SVGID_1_);}
	.st1{fill:url(#SVGID_00000039133643742246859210000014055977498563450544_);}
	.st2{fill:url(#SVGID_00000146482295312405218750000003868866222111335329_);}
	.st3{fill:url(#SVGID_00000143586529641096105710000001941829306915136646_);}
	.st4{fill:url(#SVGID_00000033336085988635402560000006122260699946299823_);}
	.st5{fill:url(#SVGID_00000112616648206498096210000009382624080867594884_);}
	.st6{fill:url(#SVGID_00000041263385000588393390000006230554804370629519_);}
</style>
<g>
	
		<linearGradient id="SVGID_1_" gradientUnits="userSpaceOnUse" x1="52.8131" y1="75.1203" x2="52.8131" y2="114.0027" gradientTransform="matrix(0.7071 0.7071 -0.7071 0.7071 48.6774 -28.0781)">
		<stop  offset="0" style="stop-color:#F9F7F8"/>
		<stop  offset="0.4128" style="stop-color:#F0EEF9"/>
		<stop  offset="1" style="stop-color:#E9E7F9"/>
	</linearGradient>
	<path class="st0" d="M35.1,84.4l-19,6.6l-8.2,3.8c-2.1,1-4.6,0.5-6.2-1.1C0,92-0.5,89.6,0.5,87.5l3.8-8.2l6.6-19L35.1,84.4z"/>
	
		<linearGradient id="SVGID_00000117660356609595984420000000610229403026305458_" gradientUnits="userSpaceOnUse" x1="34.6843" y1="28.8999" x2="47.0669" y2="88.273" gradientTransform="matrix(0.7071 0.7071 -0.7071 0.7071 48.6774 -28.0781)">
		<stop  offset="0" style="stop-color:#FF8543"/>
		<stop  offset="1" style="stop-color:#FF375A"/>
	</linearGradient>
	<polygon style="fill:url(#SVGID_00000117660356609595984420000000610229403026305458_);" points="18,67.3 10.9,60.2 54.9,16.2 
		62,23.3 	"/>
	
		<linearGradient id="SVGID_00000152231265577378851080000009097383471414334124_" gradientUnits="userSpaceOnUse" x1="52.8129" y1="-2.0269" x2="52.8129" y2="78.0921" gradientTransform="matrix(0.7071 0.7071 -0.7071 0.7071 48.6774 -28.0781)">
		<stop  offset="0" style="stop-color:#FF8543"/>
		<stop  offset="1" style="stop-color:#FF375A"/>
	</linearGradient>
	<polygon style="fill:url(#SVGID_00000152231265577378851080000009097383471414334124_);" points="27.9,77.3 18,67.3 62,23.3 
		72,33.3 	"/>
	
		<linearGradient id="SVGID_00000150071710501161591710000004490670816331748272_" gradientUnits="userSpaceOnUse" x1="58.7908" y1="28.8999" x2="71.1729" y2="88.2708" gradientTransform="matrix(0.7071 0.7071 -0.7071 0.7071 48.6774 -28.0781)">
		<stop  offset="0" style="stop-color:#FF8543"/>
		<stop  offset="1" style="stop-color:#FF375A"/>
	</linearGradient>
	<polygon style="fill:url(#SVGID_00000150071710501161591710000004490670816331748272_);" points="35.1,84.4 27.9,77.3 72,33.3 
		79.1,40.4 	"/>
	
		<linearGradient id="SVGID_00000116227854568273645800000011443111824255485580_" gradientUnits="userSpaceOnUse" x1="44.5114" y1="113.3121" x2="61.1148" y2="113.3121" gradientTransform="matrix(0.7071 0.7071 -0.7071 0.7071 48.6774 -28.0781)">
		<stop  offset="0" style="stop-color:#A46DF9"/>
		<stop  offset="1" style="stop-color:#783DFA"/>
	</linearGradient>
	<path style="fill:url(#SVGID_00000116227854568273645800000011443111824255485580_);" d="M9.5,85.8c2.3,2.3,4.6,4.1,6.5,5.2
		l-8.2,3.8c-2.1,1-4.6,0.5-6.2-1.1C0,92-0.5,89.6,0.5,87.5l3.8-8.2C5.4,81.2,7.2,83.5,9.5,85.8z"/>
	
		<linearGradient id="SVGID_00000056405682803190469290000009644564970382564484_" gradientUnits="userSpaceOnUse" x1="35.7249" y1="-3.0574" x2="69.901" y2="-3.0574" gradientTransform="matrix(0.7071 0.7071 1.167 -1.167 47.9541 -27.3548)">
		<stop  offset="0" style="stop-color:#BFFFD9"/>
		<stop  offset="1" style="stop-color:#90E2AC"/>
	</linearGradient>
	<path style="fill:url(#SVGID_00000056405682803190469290000009644564970382564484_);" d="M87.2,32.3L63,8.1l4.5-4.5
		c4.9-4.9,12.8-4.9,17.7,0l6.5,6.5c4.9,4.9,4.9,12.8,0,17.7L87.2,32.3z"/>
	
		<linearGradient id="SVGID_00000031889405111421995420000018214484061473385134_" gradientUnits="userSpaceOnUse" x1="35.7249" y1="21.1951" x2="69.901" y2="21.1951" gradientTransform="matrix(0.7071 0.7071 -0.7071 0.7071 48.6774 -28.0781)">
		<stop  offset="0" style="stop-color:#F8E54B"/>
		<stop  offset="0.9947" style="stop-color:#EBAF34"/>
	</linearGradient>
	<polygon style="fill:url(#SVGID_00000031889405111421995420000018214484061473385134_);" points="87.2,32.3 63,8.1 54.9,16.2 
		79.1,40.4 	"/>
</g>
</svg>
