<svg width="675" height="550" viewBox="0 0 675 550" fill="none" xmlns="http://www.w3.org/2000/svg">
<circle cx="337.5" cy="306.5" r="193.5" stroke="#CECECE" stroke-width="2"/>
<path d="M260.5 412.5C260.5 481.03 205.161 536.5 137 536.5C68.8392 536.5 13.5 481.03 13.5 412.5C13.5 343.97 68.8392 288.5 137 288.5C205.161 288.5 260.5 343.97 260.5 412.5Z" fill="white" stroke="url(#paint0_linear_195_547)" stroke-width="27"/>
<path d="M134.367 379.141H130.736V371.752H126.877V368.781H130.736V362.154H134.367V379.141ZM127.131 363.855C127.131 365.963 126.712 367.876 125.874 369.594C125.045 371.303 123.83 372.78 122.23 374.024C120.631 375.26 118.684 376.229 116.391 376.932L114.918 374.012C117.237 373.326 119.103 372.357 120.517 371.104C121.938 369.852 122.806 368.426 123.119 366.826H116.137V363.855H127.131ZM134.951 385.057H118.828V377.414H122.561V382.137H134.951V385.057ZM155.67 367.436H158.691V370.406H155.67V375.51H152.014V362.129H155.67V367.436ZM149.145 363.602C149.145 366.75 148.222 369.395 146.377 371.536C144.532 373.669 141.857 375.214 138.354 376.17L136.906 373.225C139.327 372.607 141.235 371.714 142.632 370.546C144.028 369.378 144.858 368.036 145.12 366.521H138.023V363.602H149.145ZM147.977 375.789C149.559 375.789 150.947 375.988 152.141 376.386C153.342 376.775 154.273 377.334 154.934 378.062C155.594 378.789 155.924 379.64 155.924 380.613C155.924 381.595 155.594 382.45 154.934 383.178C154.273 383.914 153.342 384.477 152.141 384.866C150.947 385.264 149.559 385.463 147.977 385.463C146.402 385.463 145.01 385.264 143.8 384.866C142.598 384.477 141.663 383.914 140.994 383.178C140.334 382.45 140.004 381.595 140.004 380.613C140.004 379.648 140.334 378.802 140.994 378.074C141.663 377.338 142.598 376.775 143.8 376.386C145.01 375.988 146.402 375.789 147.977 375.789ZM147.977 378.607C146.589 378.607 145.514 378.781 144.752 379.128C143.999 379.475 143.626 379.97 143.635 380.613C143.626 381.265 143.999 381.769 144.752 382.124C145.505 382.471 146.58 382.645 147.977 382.645C149.356 382.645 150.423 382.471 151.176 382.124C151.929 381.777 152.31 381.273 152.318 380.613C152.31 379.97 151.929 379.475 151.176 379.128C150.423 378.781 149.356 378.607 147.977 378.607Z" fill="#EAA82E"/>
<path d="M94.3398 428.07H92.4844V421.996H88.8516V420.453H92.4844V415.18H94.3398V428.07ZM88.9688 416.488C88.9622 417.992 88.627 419.372 87.9629 420.629C87.3053 421.885 86.3646 422.979 85.1406 423.91C83.9167 424.841 82.4648 425.577 80.7852 426.117L80.0039 424.633C81.306 424.21 82.4551 423.673 83.4512 423.021C84.4473 422.364 85.2448 421.612 85.8438 420.766C86.4427 419.913 86.804 419.001 86.9277 418.031H80.9023V416.488H88.9688ZM94.7891 432.289H83.0703V426.742H84.9453V430.785H94.7891V432.289ZM110.785 419.574H113.324V421.078H110.785V425.551H108.93V415.16H110.785V419.574ZM105.98 416.41C105.98 417.901 105.655 419.258 105.004 420.482C104.353 421.7 103.415 422.748 102.191 423.627C100.967 424.506 99.4961 425.193 97.7773 425.688L97.0156 424.184C98.3763 423.799 99.5579 423.298 100.561 422.68C101.563 422.055 102.354 421.339 102.934 420.531C103.513 419.724 103.858 418.852 103.969 417.914H97.7969V416.41H105.98ZM105.199 425.746C106.371 425.746 107.39 425.886 108.256 426.166C109.128 426.439 109.799 426.837 110.268 427.357C110.743 427.872 110.98 428.48 110.98 429.184C110.98 429.893 110.743 430.508 110.268 431.029C109.799 431.55 109.128 431.947 108.256 432.221C107.39 432.501 106.371 432.641 105.199 432.641C104.034 432.641 103.012 432.501 102.133 432.221C101.254 431.947 100.577 431.55 100.102 431.029C99.6263 430.508 99.3919 429.893 99.3984 429.184C99.3919 428.48 99.6263 427.872 100.102 427.357C100.577 426.837 101.254 426.439 102.133 426.166C103.012 425.886 104.034 425.746 105.199 425.746ZM105.199 427.211C104.392 427.211 103.689 427.292 103.09 427.455C102.491 427.611 102.029 427.839 101.703 428.139C101.384 428.432 101.228 428.78 101.234 429.184C101.228 429.587 101.384 429.942 101.703 430.248C102.029 430.548 102.491 430.779 103.09 430.941C103.689 431.098 104.392 431.176 105.199 431.176C106 431.176 106.7 431.098 107.299 430.941C107.898 430.779 108.357 430.548 108.676 430.248C109.001 429.942 109.164 429.587 109.164 429.184C109.164 428.78 109.001 428.432 108.676 428.139C108.357 427.839 107.898 427.611 107.299 427.455C106.7 427.292 106 427.211 105.199 427.211ZM128.07 420.805H130.609V422.348H128.07V428.266H126.215V415.18H128.07V420.805ZM124.77 418.715H114.34V417.211H118.637V415.16H120.492V417.211H124.77V418.715ZM119.555 419.555C120.388 419.555 121.124 419.691 121.762 419.965C122.406 420.238 122.904 420.626 123.256 421.127C123.614 421.622 123.793 422.198 123.793 422.855C123.793 423.513 123.614 424.089 123.256 424.584C122.904 425.079 122.406 425.463 121.762 425.736C121.124 426.003 120.388 426.137 119.555 426.137C118.715 426.137 117.973 426.003 117.328 425.736C116.684 425.463 116.182 425.079 115.824 424.584C115.473 424.089 115.297 423.513 115.297 422.855C115.297 422.198 115.473 421.622 115.824 421.127C116.182 420.626 116.684 420.238 117.328 419.965C117.973 419.691 118.715 419.555 119.555 419.555ZM119.555 420.98C119.06 420.98 118.624 421.059 118.246 421.215C117.875 421.365 117.589 421.583 117.387 421.869C117.185 422.149 117.087 422.478 117.094 422.855C117.087 423.227 117.185 423.552 117.387 423.832C117.589 424.105 117.875 424.317 118.246 424.467C118.624 424.617 119.06 424.691 119.555 424.691C120.049 424.691 120.482 424.617 120.854 424.467C121.231 424.317 121.524 424.105 121.732 423.832C121.941 423.552 122.048 423.227 122.055 422.855C122.048 422.478 121.941 422.149 121.732 421.869C121.524 421.583 121.231 421.365 120.854 421.215C120.482 421.059 120.049 420.98 119.555 420.98ZM128.812 432.289H116.977V427.23H118.832V430.785H128.812V432.289ZM151.039 428.441H149.184V426.762H145.668V425.453H149.184V415.18H151.039V428.441ZM151.469 432.289H138.832V427.152H140.668V430.785H151.469V432.289ZM136.41 423.168C138.689 423.155 140.733 423.116 142.543 423.051C144.359 422.986 146.091 422.849 147.738 422.641L147.855 423.969C146.417 424.203 144.88 424.372 143.246 424.477V427.895H141.391V424.584C140.134 424.63 138.852 424.652 137.543 424.652H136.645L136.41 423.168ZM142.133 415.844C142.979 415.844 143.731 415.974 144.389 416.234C145.046 416.488 145.557 416.85 145.922 417.318C146.286 417.781 146.469 418.318 146.469 418.93C146.469 419.542 146.286 420.079 145.922 420.541C145.557 420.997 145.046 421.352 144.389 421.605C143.731 421.853 142.979 421.977 142.133 421.977C141.273 421.977 140.515 421.853 139.857 421.605C139.2 421.352 138.689 420.997 138.324 420.541C137.96 420.079 137.777 419.542 137.777 418.93C137.777 418.318 137.96 417.781 138.324 417.318C138.689 416.85 139.2 416.488 139.857 416.234C140.515 415.974 141.273 415.844 142.133 415.844ZM142.133 417.23C141.618 417.224 141.163 417.289 140.766 417.426C140.368 417.562 140.062 417.761 139.848 418.021C139.633 418.282 139.529 418.585 139.535 418.93C139.529 419.268 139.633 419.564 139.848 419.818C140.062 420.072 140.365 420.268 140.756 420.404C141.153 420.541 141.612 420.609 142.133 420.609C142.634 420.609 143.077 420.541 143.461 420.404C143.852 420.268 144.154 420.072 144.369 419.818C144.59 419.564 144.704 419.268 144.711 418.93C144.704 418.585 144.59 418.282 144.369 418.021C144.154 417.761 143.852 417.562 143.461 417.426C143.077 417.289 142.634 417.224 142.133 417.23ZM168.891 432.66H167.113V423.676H165.023V431.801H163.266V415.492H165.023V422.113H167.113V415.16H168.891V432.66ZM159.086 419.789C159.086 420.857 159.223 421.866 159.496 422.816C159.77 423.767 160.183 424.613 160.736 425.355C161.296 426.091 161.99 426.671 162.816 427.094L161.723 428.52C160.883 428.064 160.17 427.445 159.584 426.664C158.998 425.883 158.546 424.975 158.227 423.939C157.921 425.111 157.471 426.14 156.879 427.025C156.293 427.911 155.564 428.611 154.691 429.125L153.539 427.719C154.783 427.016 155.717 425.967 156.342 424.574C156.973 423.181 157.289 421.586 157.289 419.789V418.656H154.008V417.152H162.133V418.656H159.086V419.789ZM187.074 430.57H171.059V429.008H175.434V425.922H173.012V420.355H183.285V417.914H172.973V416.391H185.121V421.859H174.848V424.398H185.531V425.922H182.875V429.008H187.074V430.57ZM181.059 429.008V425.922H177.23V429.008H181.059ZM102.982 458.07H101.127V451.996H97.4941V450.453H101.127V445.18H102.982V458.07ZM97.6113 446.488C97.6048 447.992 97.2695 449.372 96.6055 450.629C95.9479 451.885 95.0072 452.979 93.7832 453.91C92.5592 454.841 91.1074 455.577 89.4277 456.117L88.6465 454.633C89.9486 454.21 91.0977 453.673 92.0938 453.021C93.0898 452.364 93.8874 451.612 94.4863 450.766C95.0853 449.913 95.4466 449.001 95.5703 448.031H89.5449V446.488H97.6113ZM103.432 462.289H91.7129V456.742H93.5879V460.785H103.432V462.289ZM119.428 449.574H121.967V451.078H119.428V455.551H117.572V445.16H119.428V449.574ZM114.623 446.41C114.623 447.901 114.298 449.258 113.646 450.482C112.995 451.7 112.058 452.748 110.834 453.627C109.61 454.506 108.139 455.193 106.42 455.688L105.658 454.184C107.019 453.799 108.201 453.298 109.203 452.68C110.206 452.055 110.997 451.339 111.576 450.531C112.156 449.724 112.501 448.852 112.611 447.914H106.439V446.41H114.623ZM113.842 455.746C115.014 455.746 116.033 455.886 116.898 456.166C117.771 456.439 118.441 456.837 118.91 457.357C119.385 457.872 119.623 458.48 119.623 459.184C119.623 459.893 119.385 460.508 118.91 461.029C118.441 461.55 117.771 461.947 116.898 462.221C116.033 462.501 115.014 462.641 113.842 462.641C112.676 462.641 111.654 462.501 110.775 462.221C109.896 461.947 109.219 461.55 108.744 461.029C108.269 460.508 108.035 459.893 108.041 459.184C108.035 458.48 108.269 457.872 108.744 457.357C109.219 456.837 109.896 456.439 110.775 456.166C111.654 455.886 112.676 455.746 113.842 455.746ZM113.842 457.211C113.035 457.211 112.331 457.292 111.732 457.455C111.133 457.611 110.671 457.839 110.346 458.139C110.027 458.432 109.87 458.78 109.877 459.184C109.87 459.587 110.027 459.942 110.346 460.248C110.671 460.548 111.133 460.779 111.732 460.941C112.331 461.098 113.035 461.176 113.842 461.176C114.643 461.176 115.342 461.098 115.941 460.941C116.54 460.779 116.999 460.548 117.318 460.248C117.644 459.942 117.807 459.587 117.807 459.184C117.807 458.78 117.644 458.432 117.318 458.139C116.999 457.839 116.54 457.611 115.941 457.455C115.342 457.292 114.643 457.211 113.842 457.211ZM136.713 450.805H139.252V452.348H136.713V458.266H134.857V445.18H136.713V450.805ZM133.412 448.715H122.982V447.211H127.279V445.16H129.135V447.211H133.412V448.715ZM128.197 449.555C129.031 449.555 129.766 449.691 130.404 449.965C131.049 450.238 131.547 450.626 131.898 451.127C132.257 451.622 132.436 452.198 132.436 452.855C132.436 453.513 132.257 454.089 131.898 454.584C131.547 455.079 131.049 455.463 130.404 455.736C129.766 456.003 129.031 456.137 128.197 456.137C127.357 456.137 126.615 456.003 125.971 455.736C125.326 455.463 124.825 455.079 124.467 454.584C124.115 454.089 123.939 453.513 123.939 452.855C123.939 452.198 124.115 451.622 124.467 451.127C124.825 450.626 125.326 450.238 125.971 449.965C126.615 449.691 127.357 449.555 128.197 449.555ZM128.197 450.98C127.702 450.98 127.266 451.059 126.889 451.215C126.518 451.365 126.231 451.583 126.029 451.869C125.827 452.149 125.73 452.478 125.736 452.855C125.73 453.227 125.827 453.552 126.029 453.832C126.231 454.105 126.518 454.317 126.889 454.467C127.266 454.617 127.702 454.691 128.197 454.691C128.692 454.691 129.125 454.617 129.496 454.467C129.874 454.317 130.167 454.105 130.375 453.832C130.583 453.552 130.691 453.227 130.697 452.855C130.691 452.478 130.583 452.149 130.375 451.869C130.167 451.583 129.874 451.365 129.496 451.215C129.125 451.059 128.692 450.98 128.197 450.98ZM137.455 462.289H125.619V457.23H127.475V460.785H137.455V462.289ZM160.15 462.66H158.373V445.16H160.15V462.66ZM156.596 461.781H154.838V452.875H152.123V451.352H154.838V445.531H156.596V461.781ZM150.404 450.043C150.404 451.059 150.541 452.045 150.814 453.002C151.094 453.952 151.508 454.815 152.055 455.59C152.608 456.365 153.282 456.983 154.076 457.445L152.963 458.812C152.149 458.324 151.452 457.66 150.873 456.82C150.294 455.98 149.848 455.02 149.535 453.939C149.216 455.111 148.757 456.156 148.158 457.074C147.559 457.986 146.843 458.702 146.01 459.223L144.877 457.836C145.678 457.348 146.358 456.693 146.918 455.873C147.484 455.053 147.911 454.141 148.197 453.139C148.484 452.13 148.627 451.098 148.627 450.043V448.637H145.404V447.133H153.412V448.637H150.404V450.043ZM178.373 455.023H171.303V456.898H176.42V462.445H164.33V456.898H169.467V455.023H162.416V453.539H178.373V455.023ZM176.869 447.211H174.33V450.551H176.791V452.055H163.959V450.551H166.439V447.211H163.881V445.707H176.869V447.211ZM166.166 460.941H174.623V458.363H166.166V460.941ZM172.475 450.551V447.211H168.275V450.551H172.475Z" fill="#404040"/>
<path d="M461.5 137.5C461.5 206.03 406.161 261.5 338 261.5C269.839 261.5 214.5 206.03 214.5 137.5C214.5 68.9703 269.839 13.5 338 13.5C406.161 13.5 461.5 68.9703 461.5 137.5Z" fill="white" stroke="url(#paint1_linear_195_547)" stroke-width="27"/>
<path d="M296.72 103.1C296.72 104.682 297.134 106.104 297.964 107.365C298.802 108.618 300.122 109.523 301.925 110.082L299.995 112.926C298.827 112.52 297.824 111.952 296.986 111.225C296.157 110.497 295.488 109.633 294.98 108.635C294.447 109.803 293.719 110.81 292.797 111.656C291.883 112.503 290.77 113.146 289.458 113.586L287.503 110.717C288.781 110.294 289.83 109.697 290.651 108.927C291.481 108.148 292.082 107.272 292.454 106.299C292.835 105.326 293.03 104.301 293.038 103.227V101.348H296.72V103.1ZM306.444 105.283H309.466V108.229H306.444V113.561H302.788V100.129H306.444V105.283ZM306.444 123.184H291.058V114.424H306.444V123.184ZM294.663 120.264H302.839V117.293H294.663V120.264ZM330.083 113.967H326.452V108.635H323.151V105.689H326.452V100.129H330.083V113.967ZM322.034 114.398C323.701 114.398 325.145 114.58 326.363 114.944C327.582 115.3 328.517 115.82 329.169 116.506C329.821 117.183 330.151 117.995 330.159 118.943C330.151 119.883 329.821 120.691 329.169 121.368C328.517 122.054 327.582 122.578 326.363 122.942C325.145 123.306 323.701 123.488 322.034 123.488C320.384 123.488 318.953 123.306 317.743 122.942C316.533 122.578 315.602 122.054 314.95 121.368C314.307 120.691 313.985 119.883 313.985 118.943C313.985 117.995 314.307 117.183 314.95 116.506C315.602 115.82 316.533 115.3 317.743 114.944C318.953 114.58 320.384 114.398 322.034 114.398ZM322.034 117.166C320.562 117.166 319.457 117.314 318.721 117.61C317.984 117.898 317.616 118.342 317.616 118.943C317.616 119.544 317.98 119.989 318.708 120.276C319.444 120.556 320.553 120.695 322.034 120.695C323.532 120.695 324.654 120.556 325.398 120.276C326.143 119.989 326.52 119.544 326.528 118.943C326.52 118.342 326.143 117.898 325.398 117.61C324.654 117.314 323.532 117.166 322.034 117.166ZM323.812 104.369H319.394C319.453 105.249 319.673 106.091 320.054 106.896C320.443 107.691 321.014 108.415 321.768 109.066C322.529 109.71 323.473 110.217 324.599 110.59L322.821 113.459C321.594 113.07 320.54 112.498 319.66 111.745C318.788 110.992 318.09 110.099 317.565 109.066C317.041 110.234 316.317 111.246 315.395 112.101C314.472 112.955 313.351 113.603 312.03 114.043L310.126 111.148C311.328 110.759 312.326 110.213 313.122 109.511C313.926 108.8 314.527 108.004 314.925 107.124C315.331 106.244 315.564 105.326 315.623 104.369H311.167V101.449H323.812V104.369ZM358.368 113.408H354.737V111.402H349.812V108.482H354.737V106.578H350.027C349.316 108.406 348.148 109.942 346.523 111.187C344.898 112.431 342.795 113.391 340.214 114.068L338.792 111.199C343.684 109.955 346.38 107.746 346.879 104.572H340.087V101.678H350.878C350.878 102.312 350.836 102.99 350.751 103.709H354.737V100.154H358.368V113.408ZM350.573 113.688C352.139 113.688 353.523 113.886 354.725 114.284C355.935 114.674 356.874 115.232 357.543 115.96C358.212 116.688 358.546 117.53 358.546 118.486C358.546 119.451 358.212 120.298 357.543 121.025C356.874 121.762 355.935 122.329 354.725 122.727C353.523 123.124 352.139 123.319 350.573 123.311C348.991 123.319 347.59 123.124 346.371 122.727C345.161 122.337 344.221 121.774 343.553 121.038C342.884 120.31 342.55 119.46 342.55 118.486C342.55 117.521 342.884 116.679 343.553 115.96C344.221 115.232 345.161 114.674 346.371 114.284C347.581 113.886 348.982 113.688 350.573 113.688ZM350.573 116.531C349.177 116.514 348.098 116.675 347.336 117.014C346.583 117.344 346.206 117.835 346.206 118.486C346.206 119.138 346.583 119.629 347.336 119.959C348.089 120.281 349.168 120.441 350.573 120.441C351.953 120.441 353.015 120.281 353.76 119.959C354.513 119.629 354.89 119.138 354.89 118.486C354.89 117.835 354.513 117.344 353.76 117.014C353.015 116.675 351.953 116.514 350.573 116.531ZM367.636 101.348C368.533 101.348 369.367 101.5 370.137 101.805C370.915 102.109 371.592 102.541 372.168 103.1H377.208V100.129H380.839V113.738H377.208V111.123H372.143C371.576 111.673 370.903 112.101 370.124 112.405C369.354 112.71 368.524 112.858 367.636 112.85C366.468 112.858 365.406 112.613 364.449 112.113C363.493 111.614 362.74 110.928 362.189 110.057C361.648 109.176 361.381 108.195 361.39 107.111C361.381 106.011 361.648 105.025 362.189 104.153C362.74 103.273 363.489 102.588 364.437 102.097C365.393 101.597 366.459 101.348 367.636 101.348ZM367.636 104.471C366.789 104.454 366.112 104.678 365.604 105.144C365.097 105.601 364.843 106.257 364.843 107.111C364.843 107.941 365.097 108.592 365.604 109.066C366.121 109.54 366.798 109.777 367.636 109.777C368.16 109.777 368.626 109.672 369.032 109.46C369.447 109.248 369.769 108.944 369.997 108.546C370.234 108.14 370.353 107.661 370.353 107.111C370.353 106.257 370.103 105.601 369.604 105.144C369.104 104.678 368.448 104.454 367.636 104.471ZM372.79 114.195C374.44 114.187 375.875 114.365 377.094 114.729C378.312 115.092 379.252 115.626 379.912 116.328C380.572 117.022 380.907 117.852 380.915 118.816C380.907 119.781 380.572 120.611 379.912 121.305C379.252 122.007 378.312 122.54 377.094 122.904C375.875 123.268 374.44 123.446 372.79 123.438C371.157 123.446 369.735 123.268 368.524 122.904C367.314 122.54 366.379 122.007 365.719 121.305C365.067 120.611 364.741 119.781 364.741 118.816C364.741 117.852 365.067 117.022 365.719 116.328C366.379 115.626 367.314 115.092 368.524 114.729C369.735 114.365 371.157 114.187 372.79 114.195ZM372.79 116.963C369.811 116.963 368.321 117.581 368.321 118.816C368.321 119.434 368.694 119.891 369.438 120.188C370.192 120.475 371.309 120.619 372.79 120.619C374.313 120.619 375.448 120.475 376.192 120.188C376.946 119.891 377.326 119.434 377.335 118.816C377.326 118.182 376.946 117.716 376.192 117.42C375.439 117.115 374.305 116.963 372.79 116.963ZM377.208 108.229V105.994H373.717C373.793 106.35 373.831 106.722 373.831 107.111C373.831 107.501 373.793 107.873 373.717 108.229H377.208Z" fill="#6DB53B"/>
<path d="M291.379 166.57H289.523V162.137H286.262V160.613H289.523V156.16H291.379V166.57ZM285.52 167.059C286.737 167.059 287.788 167.189 288.674 167.449C289.566 167.71 290.249 168.087 290.725 168.582C291.2 169.077 291.438 169.669 291.438 170.359C291.438 171.049 291.2 171.639 290.725 172.127C290.249 172.622 289.569 172.999 288.684 173.26C287.798 173.52 286.743 173.654 285.52 173.66C284.296 173.654 283.238 173.52 282.346 173.26C281.46 172.999 280.78 172.622 280.305 172.127C279.829 171.639 279.595 171.049 279.602 170.359C279.595 169.669 279.829 169.077 280.305 168.582C280.78 168.087 281.46 167.71 282.346 167.449C283.238 167.189 284.296 167.059 285.52 167.059ZM285.52 168.504C284.23 168.504 283.228 168.667 282.512 168.992C281.796 169.311 281.438 169.767 281.438 170.359C281.438 170.75 281.6 171.085 281.926 171.365C282.251 171.639 282.72 171.847 283.332 171.99C283.944 172.133 284.673 172.202 285.52 172.195C286.366 172.202 287.095 172.133 287.707 171.99C288.319 171.847 288.788 171.639 289.113 171.365C289.439 171.085 289.602 170.75 289.602 170.359C289.602 169.767 289.243 169.311 288.527 168.992C287.811 168.667 286.809 168.504 285.52 168.504ZM283.059 159.246C283.059 159.988 283.228 160.708 283.566 161.404C283.905 162.101 284.393 162.723 285.031 163.27C285.669 163.81 286.418 164.227 287.277 164.52L286.32 165.984C285.357 165.646 284.517 165.148 283.801 164.49C283.091 163.826 282.541 163.055 282.15 162.176C281.766 163.172 281.197 164.044 280.441 164.793C279.686 165.535 278.794 166.095 277.766 166.473L276.789 164.988C277.674 164.682 278.446 164.236 279.104 163.65C279.768 163.058 280.275 162.381 280.627 161.619C280.985 160.857 281.164 160.073 281.164 159.266V158.875H277.375V157.371H286.809V158.875H283.059V159.246ZM300.559 159.305C300.559 160.053 300.734 160.776 301.086 161.473C301.444 162.169 301.952 162.788 302.609 163.328C303.273 163.868 304.048 164.279 304.934 164.559L303.977 166.004C302.98 165.678 302.108 165.184 301.359 164.52C300.617 163.855 300.048 163.081 299.65 162.195C299.253 163.159 298.674 163.999 297.912 164.715C297.157 165.431 296.262 165.971 295.227 166.336L294.27 164.91C295.155 164.604 295.93 164.165 296.594 163.592C297.258 163.012 297.769 162.352 298.127 161.609C298.492 160.867 298.677 160.099 298.684 159.305V158.816H294.758V157.312H304.406V158.816H300.559V159.305ZM308.586 166.727H306.73V156.16H308.586V166.727ZM308.586 173.66H306.73V169.109H296.73V167.605H308.586V173.66ZM312.941 176.043H311.281L312.316 170.652H314.504L312.941 176.043ZM335.949 166.57H334.094V162.137H330.832V160.613H334.094V156.16H335.949V166.57ZM330.09 167.059C331.307 167.059 332.359 167.189 333.244 167.449C334.136 167.71 334.82 168.087 335.295 168.582C335.77 169.077 336.008 169.669 336.008 170.359C336.008 171.049 335.77 171.639 335.295 172.127C334.82 172.622 334.139 172.999 333.254 173.26C332.368 173.52 331.314 173.654 330.09 173.66C328.866 173.654 327.808 173.52 326.916 173.26C326.031 172.999 325.35 172.622 324.875 172.127C324.4 171.639 324.165 171.049 324.172 170.359C324.165 169.669 324.4 169.077 324.875 168.582C325.35 168.087 326.031 167.71 326.916 167.449C327.808 167.189 328.866 167.059 330.09 167.059ZM330.09 168.504C328.801 168.504 327.798 168.667 327.082 168.992C326.366 169.311 326.008 169.767 326.008 170.359C326.008 170.75 326.171 171.085 326.496 171.365C326.822 171.639 327.29 171.847 327.902 171.99C328.514 172.133 329.243 172.202 330.09 172.195C330.936 172.202 331.665 172.133 332.277 171.99C332.889 171.847 333.358 171.639 333.684 171.365C334.009 171.085 334.172 170.75 334.172 170.359C334.172 169.767 333.814 169.311 333.098 168.992C332.382 168.667 331.379 168.504 330.09 168.504ZM327.629 159.246C327.629 159.988 327.798 160.708 328.137 161.404C328.475 162.101 328.964 162.723 329.602 163.27C330.24 163.81 330.988 164.227 331.848 164.52L330.891 165.984C329.927 165.646 329.087 165.148 328.371 164.49C327.661 163.826 327.111 163.055 326.721 162.176C326.337 163.172 325.767 164.044 325.012 164.793C324.257 165.535 323.365 166.095 322.336 166.473L321.359 164.988C322.245 164.682 323.016 164.236 323.674 163.65C324.338 163.058 324.846 162.381 325.197 161.619C325.555 160.857 325.734 160.073 325.734 159.266V158.875H321.945V157.371H331.379V158.875H327.629V159.246ZM352.414 161.375H354.914V162.898H352.414V167.957H350.559V156.18H352.414V161.375ZM338.527 166.004C340.48 166.004 342.004 165.988 343.098 165.955V164.783C342.089 164.673 341.294 164.393 340.715 163.943C340.135 163.494 339.849 162.918 339.855 162.215C339.849 161.688 340.015 161.229 340.354 160.838C340.699 160.447 341.187 160.148 341.818 159.939C342.45 159.731 343.182 159.63 344.016 159.637C344.842 159.63 345.568 159.731 346.193 159.939C346.825 160.148 347.313 160.447 347.658 160.838C348.003 161.229 348.176 161.688 348.176 162.215C348.176 162.911 347.886 163.488 347.307 163.943C346.734 164.393 345.949 164.673 344.953 164.783V165.887C346.698 165.802 348.234 165.665 349.562 165.477L349.719 166.805C348.059 167.098 346.35 167.286 344.592 167.371C342.84 167.449 340.884 167.488 338.723 167.488L338.527 166.004ZM352.414 173.66H350.559V170.223H340.715V168.777H352.414V173.66ZM349.074 159.051H338.977V157.664H343.098V156.023H344.953V157.664H349.074V159.051ZM344.016 160.906C343.26 160.893 342.671 161.004 342.248 161.238C341.825 161.473 341.613 161.798 341.613 162.215C341.613 162.625 341.825 162.954 342.248 163.201C342.678 163.442 343.267 163.562 344.016 163.562C344.751 163.562 345.331 163.442 345.754 163.201C346.184 162.954 346.398 162.625 346.398 162.215C346.398 161.798 346.187 161.473 345.764 161.238C345.34 161.004 344.758 160.893 344.016 160.906ZM357.512 176.043H355.852L356.887 170.652H359.074L357.512 176.043ZM380.52 166.57H378.664V162.137H375.402V160.613H378.664V156.16H380.52V166.57ZM374.66 167.059C375.878 167.059 376.929 167.189 377.814 167.449C378.706 167.71 379.39 168.087 379.865 168.582C380.34 169.077 380.578 169.669 380.578 170.359C380.578 171.049 380.34 171.639 379.865 172.127C379.39 172.622 378.71 172.999 377.824 173.26C376.939 173.52 375.884 173.654 374.66 173.66C373.436 173.654 372.378 173.52 371.486 173.26C370.601 172.999 369.921 172.622 369.445 172.127C368.97 171.639 368.736 171.049 368.742 170.359C368.736 169.669 368.97 169.077 369.445 168.582C369.921 168.087 370.601 167.71 371.486 167.449C372.378 167.189 373.436 167.059 374.66 167.059ZM374.66 168.504C373.371 168.504 372.368 168.667 371.652 168.992C370.936 169.311 370.578 169.767 370.578 170.359C370.578 170.75 370.741 171.085 371.066 171.365C371.392 171.639 371.861 171.847 372.473 171.99C373.085 172.133 373.814 172.202 374.66 172.195C375.507 172.202 376.236 172.133 376.848 171.99C377.46 171.847 377.928 171.639 378.254 171.365C378.579 171.085 378.742 170.75 378.742 170.359C378.742 169.767 378.384 169.311 377.668 168.992C376.952 168.667 375.949 168.504 374.66 168.504ZM372.199 159.246C372.199 159.988 372.368 160.708 372.707 161.404C373.046 162.101 373.534 162.723 374.172 163.27C374.81 163.81 375.559 164.227 376.418 164.52L375.461 165.984C374.497 165.646 373.658 165.148 372.941 164.49C372.232 163.826 371.682 163.055 371.291 162.176C370.907 163.172 370.337 164.044 369.582 164.793C368.827 165.535 367.935 166.095 366.906 166.473L365.93 164.988C366.815 164.682 367.587 164.236 368.244 163.65C368.908 163.058 369.416 162.381 369.768 161.619C370.126 160.857 370.305 160.073 370.305 159.266V158.875H366.516V157.371H375.949V158.875H372.199V159.246ZM397.395 165.711H392.102V169.988H399.23V171.512H383.215V169.988H390.266V165.711H385.207V157.508H397.238V159.012H387.062V164.227H397.395V165.711Z" fill="#404040"/>
<path d="M661.5 412.5C661.5 481.03 606.161 536.5 538 536.5C469.839 536.5 414.5 481.03 414.5 412.5C414.5 343.97 469.839 288.5 538 288.5C606.161 288.5 661.5 343.97 661.5 412.5Z" fill="white" stroke="url(#paint2_linear_195_547)" stroke-width="27"/>
<path d="M513.971 360.84H492.668V357.971H501.529V356.219H495.207V348.145H511.457V350.988H498.863V353.35H511.559V356.219H505.135V357.971H513.971V360.84ZM503.256 361.83C504.949 361.83 506.4 361.999 507.61 362.338C508.829 362.676 509.76 363.172 510.403 363.823C511.055 364.466 511.381 365.249 511.381 366.172C511.381 367.077 511.055 367.852 510.403 368.495C509.76 369.147 508.829 369.642 507.61 369.98C506.392 370.319 504.94 370.488 503.256 370.488C501.563 370.488 500.099 370.319 498.863 369.98C497.636 369.642 496.692 369.147 496.032 368.495C495.381 367.852 495.055 367.077 495.055 366.172C495.055 365.249 495.381 364.466 496.032 363.823C496.692 363.172 497.636 362.676 498.863 362.338C500.09 361.999 501.555 361.83 503.256 361.83ZM503.256 364.598C501.724 364.598 500.59 364.729 499.854 364.991C499.126 365.245 498.77 365.639 498.787 366.172C498.779 366.714 499.13 367.103 499.841 367.34C500.56 367.577 501.699 367.695 503.256 367.695C504.779 367.695 505.905 367.577 506.633 367.34C507.361 367.094 507.725 366.705 507.725 366.172C507.725 365.639 507.352 365.245 506.607 364.991C505.871 364.729 504.754 364.598 503.256 364.598ZM533.699 353.553H536.721V356.549H533.699V364.318H530.043V347.154H533.699V353.553ZM534.461 370.057H518.414V362.541H522.07V367.137H534.461V370.057ZM519.354 352.004H523.492V348.805H527.148V360.688H515.748V348.805H519.354V352.004ZM523.492 357.844V354.797H519.354V357.844H523.492ZM546.674 350.15C546.657 351.801 547.063 353.257 547.893 354.518C548.722 355.779 550.042 356.684 551.854 357.234L549.924 360.078C547.588 359.291 545.908 357.856 544.884 355.774C544.351 356.959 543.614 357.983 542.675 358.847C541.744 359.701 540.605 360.349 539.26 360.789L537.33 357.869C539.268 357.277 540.686 356.303 541.583 354.949C542.489 353.595 542.95 352.055 542.967 350.328V348.322H546.674V350.15ZM557.338 360.738H553.707V354.162H549.594V351.166H553.707V347.129H557.338V360.738ZM549.289 361.322C550.956 361.322 552.399 361.504 553.618 361.868C554.837 362.224 555.772 362.744 556.424 363.43C557.076 364.115 557.406 364.936 557.414 365.893C557.406 366.849 557.076 367.67 556.424 368.355C555.772 369.041 554.837 369.562 553.618 369.917C552.399 370.272 550.956 370.446 549.289 370.438C547.639 370.446 546.208 370.272 544.998 369.917C543.788 369.562 542.857 369.041 542.205 368.355C541.562 367.67 541.24 366.849 541.24 365.893C541.24 364.936 541.562 364.115 542.205 363.43C542.857 362.744 543.788 362.224 544.998 361.868C546.208 361.504 547.639 361.322 549.289 361.322ZM549.289 364.141C547.808 364.141 546.699 364.285 545.963 364.572C545.235 364.852 544.871 365.292 544.871 365.893C544.871 367.044 546.344 367.619 549.289 367.619C550.779 367.619 551.896 367.479 552.641 367.2C553.394 366.912 553.775 366.477 553.783 365.893C553.775 365.292 553.398 364.852 552.653 364.572C551.909 364.285 550.787 364.141 549.289 364.141ZM573.359 351.547H568.903C568.979 352.901 569.445 354.111 570.3 355.178C571.155 356.244 572.445 357.023 574.172 357.514L572.445 360.383C571.201 360.019 570.139 359.49 569.259 358.796C568.379 358.093 567.672 357.256 567.139 356.282C566.597 357.442 565.856 358.44 564.917 359.278C563.986 360.116 562.848 360.747 561.502 361.17L559.648 358.301C560.867 357.92 561.879 357.382 562.683 356.688C563.495 355.986 564.1 355.195 564.498 354.314C564.896 353.434 565.12 352.512 565.171 351.547H560.613V348.652H573.359V351.547ZM578.641 352.385H581.662V355.33H578.641V360.891H574.984V347.129H578.641V352.385ZM570.947 361.271C572.572 361.271 573.977 361.453 575.162 361.817C576.355 362.173 577.27 362.693 577.904 363.379C578.548 364.064 578.869 364.885 578.869 365.842C578.869 366.798 578.548 367.623 577.904 368.317C577.261 369.011 576.343 369.54 575.149 369.904C573.965 370.268 572.564 370.446 570.947 370.438C569.305 370.446 567.879 370.268 566.669 369.904C565.459 369.54 564.528 369.011 563.876 368.317C563.224 367.623 562.898 366.798 562.898 365.842C562.898 364.885 563.224 364.064 563.876 363.379C564.528 362.693 565.454 362.173 566.656 361.817C567.867 361.453 569.297 361.271 570.947 361.271ZM570.947 364.115C567.993 364.09 566.529 364.665 566.555 365.842C566.529 367.027 567.993 367.619 570.947 367.619C572.395 367.619 573.474 367.475 574.185 367.188C574.904 366.891 575.264 366.443 575.264 365.842C575.264 365.249 574.904 364.809 574.185 364.521C573.465 364.234 572.386 364.098 570.947 364.115Z" fill="#369ACD"/>
<path d="M520.643 402.797C520.643 403.923 520.613 404.923 520.555 405.795C520.503 406.661 520.369 407.647 520.154 408.754H522.674V410.277H515.584V417.68H513.709V410.277H506.717V408.754H518.279C518.514 407.654 518.66 406.667 518.719 405.795C518.777 404.916 518.807 403.917 518.807 402.797V402.777H508.67V401.254H520.643V402.797ZM530.213 402.777C530.213 403.598 530.382 404.376 530.721 405.111C531.059 405.84 531.548 406.482 532.186 407.035C532.824 407.589 533.579 408.005 534.451 408.285L533.436 409.73C532.485 409.385 531.658 408.891 530.955 408.246C530.258 407.595 529.718 406.827 529.334 405.941C528.95 406.951 528.38 407.829 527.625 408.578C526.876 409.32 525.981 409.88 524.939 410.258L523.943 408.773C524.861 408.461 525.652 408.008 526.316 407.416C526.98 406.824 527.488 406.137 527.84 405.355C528.191 404.568 528.37 403.734 528.377 402.855V401.137H530.213V402.777ZM538.592 410.492H536.736V405.238H533.045V403.715H536.736V400.16H538.592V410.492ZM532.732 410.98C533.956 410.98 535.011 411.111 535.896 411.371C536.782 411.632 537.462 412.012 537.938 412.514C538.413 413.015 538.65 413.617 538.65 414.32C538.65 415.017 538.413 415.613 537.938 416.107C537.462 416.609 536.779 416.986 535.887 417.24C535.001 417.501 533.95 417.628 532.732 417.621C531.508 417.628 530.451 417.501 529.559 417.24C528.673 416.986 527.993 416.609 527.518 416.107C527.042 415.613 526.808 415.017 526.814 414.32C526.808 413.617 527.042 413.015 527.518 412.514C527.993 412.012 528.673 411.632 529.559 411.371C530.451 411.111 531.508 410.98 532.732 410.98ZM532.732 412.426C531.45 412.426 530.447 412.592 529.725 412.924C529.008 413.249 528.65 413.715 528.65 414.32C528.65 414.906 529.008 415.359 529.725 415.678C530.447 415.997 531.45 416.156 532.732 416.156C534.015 416.156 535.014 415.997 535.73 415.678C536.453 415.359 536.814 414.906 536.814 414.32C536.814 413.715 536.453 413.249 535.73 412.924C535.014 412.592 534.015 412.426 532.732 412.426ZM555.838 413.441H553.982V411.762H550.467V410.453H553.982V400.18H555.838V413.441ZM556.268 417.289H543.631V412.152H545.467V415.785H556.268V417.289ZM541.209 408.168C543.488 408.155 545.532 408.116 547.342 408.051C549.158 407.986 550.89 407.849 552.537 407.641L552.654 408.969C551.215 409.203 549.679 409.372 548.045 409.477V412.895H546.189V409.584C544.933 409.63 543.65 409.652 542.342 409.652H541.443L541.209 408.168ZM546.932 400.844C547.778 400.844 548.53 400.974 549.188 401.234C549.845 401.488 550.356 401.85 550.721 402.318C551.085 402.781 551.268 403.318 551.268 403.93C551.268 404.542 551.085 405.079 550.721 405.541C550.356 405.997 549.845 406.352 549.188 406.605C548.53 406.853 547.778 406.977 546.932 406.977C546.072 406.977 545.314 406.853 544.656 406.605C543.999 406.352 543.488 405.997 543.123 405.541C542.758 405.079 542.576 404.542 542.576 403.93C542.576 403.318 542.758 402.781 543.123 402.318C543.488 401.85 543.999 401.488 544.656 401.234C545.314 400.974 546.072 400.844 546.932 400.844ZM546.932 402.23C546.417 402.224 545.962 402.289 545.564 402.426C545.167 402.562 544.861 402.761 544.646 403.021C544.432 403.282 544.327 403.585 544.334 403.93C544.327 404.268 544.432 404.564 544.646 404.818C544.861 405.072 545.164 405.268 545.555 405.404C545.952 405.541 546.411 405.609 546.932 405.609C547.433 405.609 547.876 405.541 548.26 405.404C548.65 405.268 548.953 405.072 549.168 404.818C549.389 404.564 549.503 404.268 549.51 403.93C549.503 403.585 549.389 403.282 549.168 403.021C548.953 402.761 548.65 402.562 548.26 402.426C547.876 402.289 547.433 402.224 546.932 402.23ZM560.154 420.043H558.494L559.529 414.652H561.717L560.154 420.043ZM481.111 433.559C481.111 434.542 481.098 435.398 481.072 436.127C481.053 436.85 480.994 437.686 480.896 438.637C480.805 439.587 480.656 440.616 480.447 441.723L478.572 441.527C478.781 440.479 478.934 439.493 479.031 438.568C479.135 437.637 479.197 436.811 479.217 436.088C479.243 435.365 479.256 434.522 479.256 433.559V433.344H468.631V431.84H481.111V433.559ZM482.908 445.297H466.951V443.754H473.025V437.582H474.861V443.754H482.908V445.297ZM499.158 440.473H497.4V435.98H495.291V440.375H493.533V430.492H495.291V434.438H497.4V430.18H499.158V440.473ZM499.158 447.66H497.322V442.738H487.205V441.234H499.158V447.66ZM491.893 431.43C491.893 433.559 491.326 435.391 490.193 436.928C489.061 438.464 487.374 439.698 485.135 440.629L484.236 439.242C485.988 438.552 487.345 437.676 488.309 436.615C489.279 435.548 489.845 434.32 490.008 432.934H484.998V431.43H491.893ZM503.104 450.043H501.443L502.479 444.652H504.666L503.104 450.043ZM523.162 435.316C523.162 436.286 523.357 437.247 523.748 438.197C524.145 439.148 524.692 439.997 525.389 440.746C526.092 441.488 526.886 442.048 527.771 442.426L526.756 443.871C525.734 443.422 524.829 442.745 524.041 441.84C523.253 440.928 522.654 439.883 522.244 438.705C521.834 439.962 521.232 441.088 520.438 442.084C519.65 443.08 518.755 443.826 517.752 444.32L516.678 442.855C517.537 442.452 518.318 441.85 519.021 441.049C519.725 440.242 520.275 439.333 520.672 438.324C521.076 437.309 521.281 436.306 521.287 435.316V433.461H517.283V431.918H527.146V433.461H523.162V435.316ZM531.209 447.66H529.354V430.16H531.209V447.66ZM548.592 447.66H546.736V442.855H536.736V441.391H548.592V447.66ZM548.592 440.473H546.736V438.07H542.42C542.003 438.552 541.482 438.926 540.857 439.193C540.232 439.46 539.549 439.594 538.807 439.594C537.941 439.594 537.163 439.415 536.473 439.057C535.783 438.692 535.239 438.188 534.842 437.543C534.451 436.898 534.256 436.169 534.256 435.355C534.256 434.555 534.451 433.835 534.842 433.197C535.239 432.553 535.783 432.048 536.473 431.684C537.169 431.319 537.947 431.137 538.807 431.137C539.549 431.137 540.232 431.27 540.857 431.537C541.482 431.804 542.003 432.178 542.42 432.66H546.736V430.16H548.592V440.473ZM538.846 432.699C538.305 432.699 537.82 432.813 537.391 433.041C536.967 433.262 536.635 433.575 536.395 433.979C536.154 434.382 536.033 434.841 536.033 435.355C536.033 435.883 536.154 436.348 536.395 436.752C536.635 437.156 536.967 437.471 537.391 437.699C537.82 437.921 538.305 438.031 538.846 438.031C539.373 438.031 539.845 437.921 540.262 437.699C540.685 437.471 541.017 437.156 541.258 436.752C541.499 436.342 541.619 435.876 541.619 435.355C541.619 434.841 541.499 434.382 541.258 433.979C541.017 433.575 540.685 433.262 540.262 433.041C539.839 432.813 539.367 432.699 538.846 432.699ZM546.736 436.547V434.184H543.23C543.341 434.568 543.396 434.958 543.396 435.355C543.396 435.766 543.341 436.163 543.23 436.547H546.736ZM557.361 434.613C557.355 435.642 557.537 436.658 557.908 437.66C558.279 438.656 558.797 439.551 559.461 440.346C560.132 441.133 560.896 441.736 561.756 442.152L560.604 443.637C559.666 443.148 558.836 442.442 558.113 441.518C557.397 440.593 556.844 439.538 556.453 438.354C556.056 439.617 555.483 440.743 554.734 441.732C553.992 442.715 553.13 443.461 552.146 443.969L550.994 442.465C551.873 442.042 552.654 441.417 553.338 440.59C554.028 439.763 554.562 438.826 554.939 437.777C555.317 436.729 555.506 435.674 555.506 434.613V431.625H557.361V434.613ZM564.92 437.133H567.732V438.715H564.92V447.66H563.064V430.16H564.92V437.133ZM583.045 447.66H581.189V430.16H583.045V447.66ZM568.67 442.895C570.773 442.882 572.374 442.859 573.475 442.826V441.078C572.791 440.993 572.195 440.808 571.688 440.521C571.18 440.235 570.789 439.867 570.516 439.418C570.242 438.969 570.109 438.461 570.115 437.895C570.109 437.243 570.281 436.671 570.633 436.176C570.984 435.681 571.482 435.297 572.127 435.023C572.771 434.75 573.514 434.613 574.354 434.613C575.2 434.613 575.949 434.75 576.6 435.023C577.257 435.297 577.765 435.681 578.123 436.176C578.488 436.671 578.67 437.243 578.67 437.895C578.67 438.454 578.53 438.959 578.25 439.408C577.977 439.851 577.586 440.215 577.078 440.502C576.577 440.788 575.988 440.977 575.311 441.068V442.758C577.029 442.686 578.631 442.556 580.115 442.367L580.252 443.754C578.527 444.04 576.749 444.226 574.92 444.311C573.09 444.395 571.092 444.438 568.924 444.438L568.67 442.895ZM579.725 433.734H569.041V432.25H573.475V430.199H575.33V432.25H579.725V433.734ZM574.354 436.059C573.865 436.059 573.432 436.137 573.055 436.293C572.677 436.443 572.384 436.658 572.176 436.938C571.967 437.211 571.867 437.53 571.873 437.895C571.867 438.259 571.967 438.578 572.176 438.852C572.384 439.118 572.677 439.327 573.055 439.477C573.432 439.62 573.865 439.691 574.354 439.691C574.855 439.691 575.298 439.62 575.682 439.477C576.066 439.327 576.362 439.118 576.57 438.852C576.785 438.578 576.893 438.259 576.893 437.895C576.893 437.53 576.785 437.211 576.57 436.938C576.355 436.658 576.056 436.443 575.672 436.293C575.288 436.137 574.848 436.059 574.354 436.059ZM599.49 437.133H602.205V438.676H599.49V447.641H597.635V430.16H599.49V437.133ZM594.92 431.996C594.907 434.665 594.259 437.061 592.977 439.184C591.694 441.306 589.673 443.051 586.912 444.418L585.877 442.973C588.064 441.879 589.754 440.544 590.945 438.969C592.143 437.393 592.837 435.583 593.025 433.539H586.756V431.996H594.92ZM511.785 464.691H514.324V466.273H511.785V470.707H509.93V460.16H511.785V464.691ZM511.785 477.445H500.613V471.625H511.785V477.445ZM502.43 475.941H509.949V473.09H502.43V475.941ZM508.484 463.422H498.055V461.938H502.352V460.023H504.207V461.938H508.484V463.422ZM503.27 464.184C504.103 464.184 504.839 464.314 505.477 464.574C506.121 464.835 506.619 465.202 506.971 465.678C507.329 466.146 507.508 466.69 507.508 467.309C507.508 467.934 507.329 468.484 506.971 468.959C506.619 469.428 506.121 469.792 505.477 470.053C504.839 470.313 504.103 470.447 503.27 470.453C502.423 470.447 501.678 470.313 501.033 470.053C500.389 469.792 499.891 469.428 499.539 468.959C499.188 468.484 499.012 467.934 499.012 467.309C499.012 466.69 499.188 466.146 499.539 465.678C499.897 465.202 500.395 464.835 501.033 464.574C501.678 464.314 502.423 464.184 503.27 464.184ZM503.27 465.609C502.775 465.603 502.342 465.668 501.971 465.805C501.6 465.941 501.31 466.14 501.102 466.4C500.9 466.661 500.802 466.964 500.809 467.309C500.802 467.849 501.02 468.275 501.463 468.588C501.912 468.894 502.514 469.047 503.27 469.047C504.018 469.047 504.62 468.894 505.076 468.588C505.532 468.275 505.763 467.849 505.77 467.309C505.763 466.964 505.656 466.661 505.447 466.4C505.239 466.14 504.946 465.941 504.568 465.805C504.191 465.668 503.758 465.603 503.27 465.609ZM519.656 462.23C519.65 463.702 519.565 465.079 519.402 466.361C519.24 467.637 518.943 468.897 518.514 470.141C518.084 471.384 517.482 472.549 516.707 473.637L515.262 472.816C516.219 471.534 516.902 470.157 517.312 468.686C517.729 467.208 517.973 465.564 518.045 463.754H515.672V462.23H519.656ZM523.543 462.23C523.543 463.116 523.527 463.939 523.494 464.701C523.468 465.456 523.41 466.202 523.318 466.938H525.379V460.609H527.137V476.801H525.379V468.441H523.104C522.661 470.896 521.837 472.979 520.633 474.691L519.188 473.852C519.897 472.901 520.451 471.872 520.848 470.766C521.245 469.652 521.518 468.533 521.668 467.406C521.818 466.28 521.909 465.062 521.941 463.754H520.184V462.23H523.543ZM530.457 477.66H528.68V460.16H530.457V477.66ZM543.699 462.777C543.699 463.598 543.868 464.376 544.207 465.111C544.546 465.84 545.034 466.482 545.672 467.035C546.31 467.589 547.065 468.005 547.938 468.285L546.922 469.73C545.971 469.385 545.145 468.891 544.441 468.246C543.745 467.595 543.204 466.827 542.82 465.941C542.436 466.951 541.867 467.829 541.111 468.578C540.363 469.32 539.467 469.88 538.426 470.258L537.43 468.773C538.348 468.461 539.139 468.008 539.803 467.416C540.467 466.824 540.975 466.137 541.326 465.355C541.678 464.568 541.857 463.734 541.863 462.855V461.137H543.699V462.777ZM552.078 470.492H550.223V465.238H546.531V463.715H550.223V460.16H552.078V470.492ZM546.219 470.98C547.443 470.98 548.497 471.111 549.383 471.371C550.268 471.632 550.949 472.012 551.424 472.514C551.899 473.015 552.137 473.617 552.137 474.32C552.137 475.017 551.899 475.613 551.424 476.107C550.949 476.609 550.265 476.986 549.373 477.24C548.488 477.501 547.436 477.628 546.219 477.621C544.995 477.628 543.937 477.501 543.045 477.24C542.16 476.986 541.479 476.609 541.004 476.107C540.529 475.613 540.294 475.017 540.301 474.32C540.294 473.617 540.529 473.015 541.004 472.514C541.479 472.012 542.16 471.632 543.045 471.371C543.937 471.111 544.995 470.98 546.219 470.98ZM546.219 472.426C544.936 472.426 543.934 472.592 543.211 472.924C542.495 473.249 542.137 473.715 542.137 474.32C542.137 474.906 542.495 475.359 543.211 475.678C543.934 475.997 544.936 476.156 546.219 476.156C547.501 476.156 548.501 475.997 549.217 475.678C549.939 475.359 550.301 474.906 550.301 474.32C550.301 473.715 549.939 473.249 549.217 472.924C548.501 472.592 547.501 472.426 546.219 472.426ZM560.887 463.383C560.887 464.125 561.053 464.835 561.385 465.512C561.717 466.182 562.199 466.778 562.83 467.299C563.462 467.813 564.214 468.207 565.086 468.48L564.207 469.926C563.224 469.613 562.371 469.145 561.648 468.52C560.932 467.895 560.379 467.159 559.988 466.312C559.604 467.283 559.035 468.129 558.279 468.852C557.524 469.568 556.629 470.108 555.594 470.473L554.637 468.988C555.529 468.695 556.303 468.266 556.961 467.699C557.625 467.126 558.133 466.469 558.484 465.727C558.842 464.984 559.025 464.21 559.031 463.402V462.914H555.184V461.41H564.656V462.914H560.887V463.383ZM568.523 464.496H571.062V466.02H568.523V470.668H566.668V460.16H568.523V464.496ZM562.879 471.098C564.077 471.098 565.112 471.228 565.984 471.488C566.857 471.742 567.524 472.113 567.986 472.602C568.449 473.083 568.68 473.663 568.68 474.34C568.68 475.023 568.445 475.613 567.977 476.107C567.514 476.602 566.847 476.98 565.975 477.24C565.109 477.501 564.077 477.628 562.879 477.621C561.668 477.628 560.62 477.501 559.734 477.24C558.855 476.98 558.178 476.602 557.703 476.107C557.234 475.613 557 475.023 557 474.34C557 473.663 557.234 473.083 557.703 472.602C558.178 472.113 558.855 471.742 559.734 471.488C560.62 471.228 561.668 471.098 562.879 471.098ZM562.879 472.562C561.603 472.562 560.61 472.719 559.9 473.031C559.197 473.337 558.849 473.773 558.855 474.34C558.849 474.919 559.197 475.368 559.9 475.688C560.61 476 561.603 476.156 562.879 476.156C564.142 476.156 565.122 476 565.818 475.688C566.515 475.375 566.863 474.926 566.863 474.34C566.863 473.773 566.515 473.337 565.818 473.031C565.122 472.719 564.142 472.562 562.879 472.562Z" fill="#404040"/>
<defs>
<linearGradient id="paint0_linear_195_547" x1="137" y1="275" x2="137" y2="550" gradientUnits="userSpaceOnUse">
<stop stop-color="#EAA629"/>
<stop offset="1" stop-color="#EED3A3"/>
</linearGradient>
<linearGradient id="paint1_linear_195_547" x1="338" y1="0" x2="338" y2="275" gradientUnits="userSpaceOnUse">
<stop stop-color="#66AF33"/>
<stop offset="1" stop-color="#B8F48D"/>
</linearGradient>
<linearGradient id="paint2_linear_195_547" x1="538" y1="275" x2="538" y2="550" gradientUnits="userSpaceOnUse">
<stop stop-color="#2F96CA"/>
<stop offset="1" stop-color="#89D1F5"/>
</linearGradient>
</defs>
</svg>
